<mxfile host="Electron" agent="Mozilla/5.0 (Windows NT 10.0; Win64; x64) AppleWebKit/537.36 (KHTML, like Gecko) draw.io/27.0.9 Chrome/134.0.6998.205 Electron/35.4.0 Safari/537.36" version="27.0.9">
  <diagram id="C5RBs43oDa-KdzZeNtuy" name="Page-1">
    <mxGraphModel dx="876" dy="537" grid="1" gridSize="10" guides="1" tooltips="1" connect="1" arrows="1" fold="1" page="1" pageScale="1" pageWidth="827" pageHeight="1169" math="0" shadow="0">
      <root>
        <mxCell id="WIyWlLk6GJQsqaUBKTNV-0" />
        <mxCell id="WIyWlLk6GJQsqaUBKTNV-1" parent="WIyWlLk6GJQsqaUBKTNV-0" />
        <mxCell id="WIyWlLk6GJQsqaUBKTNV-2" value="" style="rounded=0;html=1;jettySize=auto;orthogonalLoop=1;fontSize=11;endArrow=block;endFill=0;endSize=8;strokeWidth=1;shadow=0;labelBackgroundColor=none;edgeStyle=orthogonalEdgeStyle;" parent="WIyWlLk6GJQsqaUBKTNV-1" source="REr1-U52xPMIMC_tFasp-1" target="WIyWlLk6GJQsqaUBKTNV-6" edge="1">
          <mxGeometry relative="1" as="geometry">
            <Array as="points">
              <mxPoint x="380" y="90" />
              <mxPoint x="380" y="90" />
            </Array>
          </mxGeometry>
        </mxCell>
        <mxCell id="WIyWlLk6GJQsqaUBKTNV-3" value="&lt;div style=&quot;color: rgb(171, 178, 191); background-color: rgb(40, 44, 52); font-size: 14px; line-height: 19px; white-space: pre;&quot;&gt;&lt;span style=&quot;color: rgb(97, 175, 239);&quot;&gt;Load Page Data Sheet&lt;/span&gt;&lt;/div&gt;" style="rounded=1;whiteSpace=wrap;html=1;fontSize=12;glass=0;strokeWidth=1;shadow=0;" parent="WIyWlLk6GJQsqaUBKTNV-1" vertex="1">
          <mxGeometry x="295" y="40" width="170" height="40" as="geometry" />
        </mxCell>
        <mxCell id="WIyWlLk6GJQsqaUBKTNV-5" value="No" style="edgeStyle=orthogonalEdgeStyle;rounded=0;html=1;jettySize=auto;orthogonalLoop=1;fontSize=11;endArrow=block;endFill=0;endSize=8;strokeWidth=1;shadow=0;labelBackgroundColor=none;" parent="WIyWlLk6GJQsqaUBKTNV-1" source="WIyWlLk6GJQsqaUBKTNV-6" target="WIyWlLk6GJQsqaUBKTNV-7" edge="1">
          <mxGeometry y="10" relative="1" as="geometry">
            <mxPoint as="offset" />
          </mxGeometry>
        </mxCell>
        <mxCell id="WIyWlLk6GJQsqaUBKTNV-6" value="&lt;div style=&quot;color: rgb(171, 178, 191); background-color: rgb(40, 44, 52); font-size: 14px; line-height: 19px; white-space: pre;&quot;&gt;.is user &lt;/div&gt;&lt;div style=&quot;color: rgb(171, 178, 191); background-color: rgb(40, 44, 52); font-size: 14px; line-height: 19px; white-space: pre;&quot;&gt;authenticated?&lt;/div&gt;" style="rhombus;whiteSpace=wrap;html=1;shadow=0;fontFamily=Helvetica;fontSize=12;align=center;strokeWidth=1;spacing=6;spacingTop=-4;" parent="WIyWlLk6GJQsqaUBKTNV-1" vertex="1">
          <mxGeometry x="275" y="190" width="210" height="110" as="geometry" />
        </mxCell>
        <mxCell id="WIyWlLk6GJQsqaUBKTNV-7" value="Redirect to Login" style="rounded=1;whiteSpace=wrap;html=1;fontSize=12;glass=0;strokeWidth=1;shadow=0;" parent="WIyWlLk6GJQsqaUBKTNV-1" vertex="1">
          <mxGeometry x="590" y="225" width="120" height="40" as="geometry" />
        </mxCell>
        <mxCell id="REr1-U52xPMIMC_tFasp-5" value="" style="rounded=0;html=1;jettySize=auto;orthogonalLoop=1;fontSize=11;endArrow=block;endFill=0;endSize=8;strokeWidth=1;shadow=0;labelBackgroundColor=none;edgeStyle=orthogonalEdgeStyle;" parent="WIyWlLk6GJQsqaUBKTNV-1" source="WIyWlLk6GJQsqaUBKTNV-3" target="REr1-U52xPMIMC_tFasp-1" edge="1">
          <mxGeometry relative="1" as="geometry">
            <mxPoint x="380" y="80" as="sourcePoint" />
            <mxPoint x="380" y="310" as="targetPoint" />
            <Array as="points" />
          </mxGeometry>
        </mxCell>
        <mxCell id="REr1-U52xPMIMC_tFasp-1" value="&lt;div style=&quot;color: rgb(171, 178, 191); background-color: rgb(40, 44, 52); font-size: 14px; line-height: 19px; white-space: pre;&quot;&gt;machineShow &lt;span style=&quot;color: #c678dd;&quot;&gt;=&lt;/span&gt; &lt;span style=&quot;color: #98c379;&quot;&gt;&quot;Hide&quot;&lt;/span&gt;&lt;/div&gt;" style="rounded=1;whiteSpace=wrap;html=1;" parent="WIyWlLk6GJQsqaUBKTNV-1" vertex="1">
          <mxGeometry x="290" y="120" width="180" height="40" as="geometry" />
        </mxCell>
        <mxCell id="REr1-U52xPMIMC_tFasp-7" value="" style="rounded=0;html=1;jettySize=auto;orthogonalLoop=1;fontSize=11;endArrow=block;endFill=0;endSize=8;strokeWidth=1;shadow=0;labelBackgroundColor=none;edgeStyle=orthogonalEdgeStyle;" parent="WIyWlLk6GJQsqaUBKTNV-1" source="WIyWlLk6GJQsqaUBKTNV-6" target="REr1-U52xPMIMC_tFasp-6" edge="1">
          <mxGeometry y="20" relative="1" as="geometry">
            <mxPoint as="offset" />
            <mxPoint x="380" y="300" as="sourcePoint" />
            <mxPoint x="380" y="430" as="targetPoint" />
          </mxGeometry>
        </mxCell>
        <mxCell id="REr1-U52xPMIMC_tFasp-6" value="&lt;div style=&quot;color: rgb(171, 178, 191); background-color: rgb(40, 44, 52); font-size: 14px; line-height: 19px; white-space: pre;&quot;&gt;user_company &lt;span style=&quot;color: #c678dd;&quot;&gt;=&lt;/span&gt; &lt;span style=&quot;color: #d19a66;&quot;&gt;None&lt;/span&gt;&lt;/div&gt;" style="rounded=1;whiteSpace=wrap;html=1;" parent="WIyWlLk6GJQsqaUBKTNV-1" vertex="1">
          <mxGeometry x="300" y="340" width="160" height="50" as="geometry" />
        </mxCell>
        <mxCell id="REr1-U52xPMIMC_tFasp-9" value="" style="rounded=0;html=1;jettySize=auto;orthogonalLoop=1;fontSize=11;endArrow=block;endFill=0;endSize=8;strokeWidth=1;shadow=0;labelBackgroundColor=none;edgeStyle=orthogonalEdgeStyle;" parent="WIyWlLk6GJQsqaUBKTNV-1" source="REr1-U52xPMIMC_tFasp-6" target="REr1-U52xPMIMC_tFasp-8" edge="1">
          <mxGeometry x="-1" y="-82" relative="1" as="geometry">
            <mxPoint x="62" y="-80" as="offset" />
            <mxPoint x="380" y="390" as="sourcePoint" />
            <mxPoint x="380" y="960" as="targetPoint" />
          </mxGeometry>
        </mxCell>
        <mxCell id="REr1-U52xPMIMC_tFasp-8" value="&lt;div style=&quot;color: rgb(171, 178, 191); background-color: rgb(40, 44, 52); font-size: 14px; line-height: 19px; white-space: pre;&quot;&gt;.is user &lt;/div&gt;&lt;div style=&quot;color: rgb(171, 178, 191); background-color: rgb(40, 44, 52); font-size: 14px; line-height: 19px; white-space: pre;&quot;&gt;authenticated?&lt;/div&gt;" style="rhombus;whiteSpace=wrap;html=1;shadow=0;fontFamily=Helvetica;fontSize=12;align=center;strokeWidth=1;spacing=6;spacingTop=-4;" parent="WIyWlLk6GJQsqaUBKTNV-1" vertex="1">
          <mxGeometry x="275" y="440" width="210" height="110" as="geometry" />
        </mxCell>
        <mxCell id="REr1-U52xPMIMC_tFasp-10" value="yes" style="text;html=1;align=center;verticalAlign=middle;resizable=0;points=[];autosize=1;strokeColor=none;fillColor=none;" parent="WIyWlLk6GJQsqaUBKTNV-1" vertex="1">
          <mxGeometry x="340" y="300" width="40" height="30" as="geometry" />
        </mxCell>
        <mxCell id="REr1-U52xPMIMC_tFasp-12" value="" style="rounded=0;html=1;jettySize=auto;orthogonalLoop=1;fontSize=11;endArrow=block;endFill=0;endSize=8;strokeWidth=1;shadow=0;labelBackgroundColor=none;edgeStyle=orthogonalEdgeStyle;" parent="WIyWlLk6GJQsqaUBKTNV-1" source="REr1-U52xPMIMC_tFasp-8" target="REr1-U52xPMIMC_tFasp-11" edge="1">
          <mxGeometry x="-1" y="-82" relative="1" as="geometry">
            <mxPoint x="62" y="-80" as="offset" />
            <mxPoint x="380" y="550" as="sourcePoint" />
            <mxPoint x="380" y="960" as="targetPoint" />
          </mxGeometry>
        </mxCell>
        <mxCell id="REr1-U52xPMIMC_tFasp-11" value="&lt;div style=&quot;color: rgb(171, 178, 191); background-color: rgb(40, 44, 52); font-size: 14px; line-height: 19px; white-space: pre;&quot;&gt;&lt;div style=&quot;line-height: 19px;&quot;&gt;if UserCompany data&lt;/div&gt;&lt;/div&gt;" style="strokeWidth=2;html=1;shape=mxgraph.flowchart.decision;whiteSpace=wrap;" parent="WIyWlLk6GJQsqaUBKTNV-1" vertex="1">
          <mxGeometry x="280" y="600" width="200" height="110" as="geometry" />
        </mxCell>
        <mxCell id="REr1-U52xPMIMC_tFasp-17" value="yes" style="text;html=1;align=center;verticalAlign=middle;resizable=0;points=[];autosize=1;strokeColor=none;fillColor=none;" parent="WIyWlLk6GJQsqaUBKTNV-1" vertex="1">
          <mxGeometry x="490" y="618" width="40" height="30" as="geometry" />
        </mxCell>
        <mxCell id="REr1-U52xPMIMC_tFasp-19" value="No" style="text;html=1;align=center;verticalAlign=middle;resizable=0;points=[];autosize=1;strokeColor=none;fillColor=none;" parent="WIyWlLk6GJQsqaUBKTNV-1" vertex="1">
          <mxGeometry x="230" y="618" width="40" height="30" as="geometry" />
        </mxCell>
        <mxCell id="REr1-U52xPMIMC_tFasp-22" value="" style="edgeStyle=orthogonalEdgeStyle;rounded=0;orthogonalLoop=1;jettySize=auto;html=1;exitX=0;exitY=0.5;exitDx=0;exitDy=0;exitPerimeter=0;" parent="WIyWlLk6GJQsqaUBKTNV-1" source="REr1-U52xPMIMC_tFasp-11" target="REr1-U52xPMIMC_tFasp-21" edge="1">
          <mxGeometry relative="1" as="geometry">
            <mxPoint x="170" y="655" as="targetPoint" />
            <mxPoint x="280" y="655" as="sourcePoint" />
          </mxGeometry>
        </mxCell>
        <mxCell id="REr1-U52xPMIMC_tFasp-25" style="edgeStyle=orthogonalEdgeStyle;rounded=0;orthogonalLoop=1;jettySize=auto;html=1;exitX=0.5;exitY=1;exitDx=0;exitDy=0;" parent="WIyWlLk6GJQsqaUBKTNV-1" source="REr1-U52xPMIMC_tFasp-21" target="REr1-U52xPMIMC_tFasp-26" edge="1">
          <mxGeometry relative="1" as="geometry">
            <mxPoint x="120" y="800" as="targetPoint" />
            <Array as="points">
              <mxPoint x="120" y="790" />
            </Array>
          </mxGeometry>
        </mxCell>
        <mxCell id="REr1-U52xPMIMC_tFasp-21" value="&lt;div style=&quot;color: rgb(171, 178, 191); background-color: rgb(40, 44, 52); font-size: 14px; line-height: 19px; white-space: pre;&quot;&gt;user_company = None&lt;/div&gt;" style="rounded=1;whiteSpace=wrap;html=1;" parent="WIyWlLk6GJQsqaUBKTNV-1" vertex="1">
          <mxGeometry x="30" y="625" width="180" height="60" as="geometry" />
        </mxCell>
        <mxCell id="REr1-U52xPMIMC_tFasp-23" value="" style="edgeStyle=orthogonalEdgeStyle;rounded=0;orthogonalLoop=1;jettySize=auto;html=1;exitX=1;exitY=0.5;exitDx=0;exitDy=0;exitPerimeter=0;" parent="WIyWlLk6GJQsqaUBKTNV-1" source="REr1-U52xPMIMC_tFasp-11" target="REr1-U52xPMIMC_tFasp-20" edge="1">
          <mxGeometry relative="1" as="geometry">
            <mxPoint x="590" y="655" as="targetPoint" />
            <mxPoint x="480" y="655" as="sourcePoint" />
          </mxGeometry>
        </mxCell>
        <mxCell id="REr1-U52xPMIMC_tFasp-24" style="edgeStyle=orthogonalEdgeStyle;rounded=0;orthogonalLoop=1;jettySize=auto;html=1;exitX=0.5;exitY=1;exitDx=0;exitDy=0;entryX=1;entryY=0.5;entryDx=0;entryDy=0;" parent="WIyWlLk6GJQsqaUBKTNV-1" source="REr1-U52xPMIMC_tFasp-20" target="REr1-U52xPMIMC_tFasp-26" edge="1">
          <mxGeometry relative="1" as="geometry">
            <mxPoint x="655" y="790" as="targetPoint" />
          </mxGeometry>
        </mxCell>
        <mxCell id="REr1-U52xPMIMC_tFasp-20" value="&lt;div style=&quot;color: rgb(171, 178, 191); background-color: rgb(40, 44, 52); font-size: 14px; line-height: 19px; white-space: pre;&quot;&gt;user_company = Company name&lt;/div&gt;" style="rounded=1;whiteSpace=wrap;html=1;" parent="WIyWlLk6GJQsqaUBKTNV-1" vertex="1">
          <mxGeometry x="540" y="625" width="230" height="60" as="geometry" />
        </mxCell>
        <mxCell id="REr1-U52xPMIMC_tFasp-28" style="edgeStyle=orthogonalEdgeStyle;rounded=0;orthogonalLoop=1;jettySize=auto;html=1;" parent="WIyWlLk6GJQsqaUBKTNV-1" source="REr1-U52xPMIMC_tFasp-26" target="REr1-U52xPMIMC_tFasp-29" edge="1">
          <mxGeometry relative="1" as="geometry">
            <mxPoint x="390" y="870" as="targetPoint" />
          </mxGeometry>
        </mxCell>
        <mxCell id="REr1-U52xPMIMC_tFasp-26" value="&lt;div style=&quot;color: rgb(171, 178, 191); background-color: rgb(40, 44, 52); font-size: 14px; line-height: 19px; white-space: pre;&quot;&gt;sheet_keys = Key values of the machines&lt;/div&gt;" style="rounded=1;whiteSpace=wrap;html=1;" parent="WIyWlLk6GJQsqaUBKTNV-1" vertex="1">
          <mxGeometry x="230" y="760" width="320" height="60" as="geometry" />
        </mxCell>
        <mxCell id="REr1-U52xPMIMC_tFasp-30" style="edgeStyle=orthogonalEdgeStyle;rounded=0;orthogonalLoop=1;jettySize=auto;html=1;" parent="WIyWlLk6GJQsqaUBKTNV-1" source="REr1-U52xPMIMC_tFasp-29" target="REr1-U52xPMIMC_tFasp-31" edge="1">
          <mxGeometry relative="1" as="geometry">
            <mxPoint x="390" y="940" as="targetPoint" />
          </mxGeometry>
        </mxCell>
        <mxCell id="REr1-U52xPMIMC_tFasp-29" value="&lt;div style=&quot;color: rgb(171, 178, 191); background-color: rgb(40, 44, 52); font-size: 14px; line-height: 19px; white-space: pre;&quot;&gt;sheet_key &lt;span style=&quot;color: #c678dd;&quot;&gt;=&lt;/span&gt; &lt;span style=&quot;color: #d19a66;&quot;&gt;None&lt;/span&gt;&lt;/div&gt;" style="rounded=1;whiteSpace=wrap;html=1;" parent="WIyWlLk6GJQsqaUBKTNV-1" vertex="1">
          <mxGeometry x="310" y="850" width="160" height="40" as="geometry" />
        </mxCell>
        <mxCell id="REr1-U52xPMIMC_tFasp-33" style="edgeStyle=orthogonalEdgeStyle;rounded=0;orthogonalLoop=1;jettySize=auto;html=1;" parent="WIyWlLk6GJQsqaUBKTNV-1" source="REr1-U52xPMIMC_tFasp-31" target="REr1-U52xPMIMC_tFasp-34" edge="1">
          <mxGeometry relative="1" as="geometry">
            <mxPoint x="390" y="1130" as="targetPoint" />
          </mxGeometry>
        </mxCell>
        <mxCell id="REr1-U52xPMIMC_tFasp-31" value="&lt;div style=&quot;color: rgb(171, 178, 191); background-color: rgb(40, 44, 52); font-size: 14px; line-height: 19px; white-space: pre;&quot;&gt;if&lt;/div&gt;&lt;div style=&quot;color: rgb(171, 178, 191); background-color: rgb(40, 44, 52); font-size: 14px; line-height: 19px; white-space: pre;&quot;&gt;request.method &lt;span style=&quot;color: rgb(198, 120, 221);&quot;&gt;==&lt;/span&gt; &lt;span style=&quot;color: rgb(152, 195, 121);&quot;&gt;&quot;POST&quot;&lt;/span&gt; &lt;/div&gt;&lt;div style=&quot;color: rgb(171, 178, 191); background-color: rgb(40, 44, 52); font-size: 14px; line-height: 19px; white-space: pre;&quot;&gt;&lt;span style=&quot;color: rgb(198, 120, 221);&quot;&gt;and&lt;/span&gt;&lt;/div&gt;&lt;div style=&quot;color: rgb(171, 178, 191); background-color: rgb(40, 44, 52); font-size: 14px; line-height: 19px; white-space: pre;&quot;&gt;Button name is &lt;span style=&quot;color: rgb(152, 195, 121);&quot;&gt;&#39;loadpage&#39;&lt;/span&gt;&lt;/div&gt;" style="rhombus;whiteSpace=wrap;html=1;" parent="WIyWlLk6GJQsqaUBKTNV-1" vertex="1">
          <mxGeometry x="180" y="930" width="420" height="160" as="geometry" />
        </mxCell>
        <mxCell id="REr1-U52xPMIMC_tFasp-36" style="edgeStyle=orthogonalEdgeStyle;rounded=0;orthogonalLoop=1;jettySize=auto;html=1;" parent="WIyWlLk6GJQsqaUBKTNV-1" source="REr1-U52xPMIMC_tFasp-34" target="REr1-U52xPMIMC_tFasp-37" edge="1">
          <mxGeometry relative="1" as="geometry">
            <mxPoint x="390" y="1220" as="targetPoint" />
          </mxGeometry>
        </mxCell>
        <mxCell id="REr1-U52xPMIMC_tFasp-34" value="&lt;div style=&quot;color: rgb(171, 178, 191); background-color: rgb(40, 44, 52); font-size: 14px; line-height: 19px; white-space: pre;&quot;&gt;sheet_key = machine key value&lt;/div&gt;" style="rounded=1;whiteSpace=wrap;html=1;" parent="WIyWlLk6GJQsqaUBKTNV-1" vertex="1">
          <mxGeometry x="270" y="1130" width="240" height="50" as="geometry" />
        </mxCell>
        <mxCell id="REr1-U52xPMIMC_tFasp-35" value="yes" style="text;html=1;align=center;verticalAlign=middle;resizable=0;points=[];autosize=1;strokeColor=none;fillColor=none;" parent="WIyWlLk6GJQsqaUBKTNV-1" vertex="1">
          <mxGeometry x="350" y="1090" width="40" height="30" as="geometry" />
        </mxCell>
        <mxCell id="REr1-U52xPMIMC_tFasp-38" style="edgeStyle=orthogonalEdgeStyle;rounded=0;orthogonalLoop=1;jettySize=auto;html=1;entryX=1;entryY=0.5;entryDx=0;entryDy=0;" parent="WIyWlLk6GJQsqaUBKTNV-1" source="REr1-U52xPMIMC_tFasp-37" target="REr1-U52xPMIMC_tFasp-29" edge="1">
          <mxGeometry relative="1" as="geometry">
            <mxPoint x="720" y="870" as="targetPoint" />
            <Array as="points">
              <mxPoint x="650" y="1260" />
              <mxPoint x="650" y="870" />
            </Array>
          </mxGeometry>
        </mxCell>
        <mxCell id="REr1-U52xPMIMC_tFasp-37" value="&lt;div style=&quot;color: rgb(171, 178, 191); background-color: rgb(40, 44, 52); font-size: 14px; line-height: 19px; white-space: pre;&quot;&gt;if&lt;/div&gt;&lt;div style=&quot;color: rgb(171, 178, 191); background-color: rgb(40, 44, 52); font-size: 14px; line-height: 19px; white-space: pre;&quot;&gt;sheet_key&lt;/div&gt;" style="rhombus;whiteSpace=wrap;html=1;" parent="WIyWlLk6GJQsqaUBKTNV-1" vertex="1">
          <mxGeometry x="330" y="1210" width="120" height="100" as="geometry" />
        </mxCell>
        <mxCell id="REr1-U52xPMIMC_tFasp-41" value="No" style="text;html=1;align=center;verticalAlign=middle;resizable=0;points=[];autosize=1;strokeColor=none;fillColor=none;" parent="WIyWlLk6GJQsqaUBKTNV-1" vertex="1">
          <mxGeometry x="650" y="1058" width="40" height="30" as="geometry" />
        </mxCell>
        <mxCell id="REr1-U52xPMIMC_tFasp-45" value="" style="edgeStyle=orthogonalEdgeStyle;rounded=0;orthogonalLoop=1;jettySize=auto;html=1;" parent="WIyWlLk6GJQsqaUBKTNV-1" source="REr1-U52xPMIMC_tFasp-37" target="REr1-U52xPMIMC_tFasp-44" edge="1">
          <mxGeometry relative="1" as="geometry">
            <mxPoint x="390" y="1400" as="targetPoint" />
            <mxPoint x="390" y="1310" as="sourcePoint" />
          </mxGeometry>
        </mxCell>
        <mxCell id="REr1-U52xPMIMC_tFasp-46" value="yes" style="edgeLabel;html=1;align=center;verticalAlign=middle;resizable=0;points=[];" parent="REr1-U52xPMIMC_tFasp-45" vertex="1" connectable="0">
          <mxGeometry x="-0.0056" y="-6" relative="1" as="geometry">
            <mxPoint x="-20" y="-11" as="offset" />
          </mxGeometry>
        </mxCell>
        <mxCell id="REr1-U52xPMIMC_tFasp-47" style="edgeStyle=orthogonalEdgeStyle;rounded=0;orthogonalLoop=1;jettySize=auto;html=1;exitX=0.5;exitY=1;exitDx=0;exitDy=0;" parent="WIyWlLk6GJQsqaUBKTNV-1" source="REr1-U52xPMIMC_tFasp-44" target="REr1-U52xPMIMC_tFasp-48" edge="1">
          <mxGeometry relative="1" as="geometry">
            <mxPoint x="390" y="1490" as="targetPoint" />
          </mxGeometry>
        </mxCell>
        <mxCell id="REr1-U52xPMIMC_tFasp-44" value="&lt;div style=&quot;color: rgb(171, 178, 191); background-color: rgb(40, 44, 52); font-size: 14px; line-height: 19px; white-space: pre;&quot;&gt;machineShow &lt;span style=&quot;color: #c678dd;&quot;&gt;=&lt;/span&gt; &lt;span style=&quot;color: #98c379;&quot;&gt;&quot;Yes&quot;&lt;/span&gt;&lt;/div&gt;" style="rounded=1;whiteSpace=wrap;html=1;" parent="WIyWlLk6GJQsqaUBKTNV-1" vertex="1">
          <mxGeometry x="300" y="1350" width="180" height="60" as="geometry" />
        </mxCell>
        <mxCell id="REr1-U52xPMIMC_tFasp-50" value="" style="edgeStyle=orthogonalEdgeStyle;rounded=0;orthogonalLoop=1;jettySize=auto;html=1;" parent="WIyWlLk6GJQsqaUBKTNV-1" source="REr1-U52xPMIMC_tFasp-48" target="REr1-U52xPMIMC_tFasp-49" edge="1">
          <mxGeometry relative="1" as="geometry" />
        </mxCell>
        <mxCell id="REr1-U52xPMIMC_tFasp-48" value="&lt;div style=&quot;color: rgb(171, 178, 191); background-color: rgb(40, 44, 52); font-size: 14px; line-height: 19px; white-space: pre;&quot;&gt;make aLogEntry&lt;/div&gt;" style="rounded=1;whiteSpace=wrap;html=1;" parent="WIyWlLk6GJQsqaUBKTNV-1" vertex="1">
          <mxGeometry x="330" y="1460" width="120" height="60" as="geometry" />
        </mxCell>
        <mxCell id="REr1-U52xPMIMC_tFasp-57" value="" style="edgeStyle=orthogonalEdgeStyle;rounded=0;orthogonalLoop=1;jettySize=auto;html=1;" parent="WIyWlLk6GJQsqaUBKTNV-1" source="REr1-U52xPMIMC_tFasp-49" target="REr1-U52xPMIMC_tFasp-56" edge="1">
          <mxGeometry relative="1" as="geometry" />
        </mxCell>
        <mxCell id="REr1-U52xPMIMC_tFasp-49" value="&lt;div style=&quot;color: rgb(171, 178, 191); background-color: rgb(40, 44, 52); font-size: 14px; line-height: 19px; white-space: pre;&quot;&gt;AddMachine &lt;/div&gt;&lt;div style=&quot;color: rgb(171, 178, 191); background-color: rgb(40, 44, 52); font-size: 14px; line-height: 19px; white-space: pre;&quot;&gt;Data Exist&lt;/div&gt;" style="rhombus;whiteSpace=wrap;html=1;rounded=1;" parent="WIyWlLk6GJQsqaUBKTNV-1" vertex="1">
          <mxGeometry x="300" y="1590" width="180" height="100" as="geometry" />
        </mxCell>
        <mxCell id="REr1-U52xPMIMC_tFasp-56" value="&lt;div style=&quot;color: rgb(171, 178, 191); background-color: rgb(40, 44, 52); font-size: 14px; line-height: 19px; white-space: pre;&quot;&gt;&lt;div&gt;form_type &lt;span style=&quot;color: rgb(198, 120, 221);&quot;&gt;=&lt;/span&gt; the machine form name&lt;/div&gt;&lt;div&gt;DB_Name &lt;span style=&quot;color: rgb(198, 120, 221);&quot;&gt;=&lt;/span&gt; the machine DB name&lt;/div&gt;&lt;div&gt;aMachineName &lt;span style=&quot;color: rgb(198, 120, 221);&quot;&gt;=&lt;/span&gt; the machinename&lt;/div&gt;&lt;/div&gt;" style="whiteSpace=wrap;html=1;rounded=1;" parent="WIyWlLk6GJQsqaUBKTNV-1" vertex="1">
          <mxGeometry x="560" y="1600" width="280" height="80" as="geometry" />
        </mxCell>
        <mxCell id="REr1-U52xPMIMC_tFasp-58" value="yes" style="text;html=1;align=center;verticalAlign=middle;resizable=0;points=[];autosize=1;strokeColor=none;fillColor=none;" parent="WIyWlLk6GJQsqaUBKTNV-1" vertex="1">
          <mxGeometry x="505" y="1608" width="40" height="30" as="geometry" />
        </mxCell>
        <mxCell id="REr1-U52xPMIMC_tFasp-59" value="No" style="text;html=1;align=center;verticalAlign=middle;resizable=0;points=[];autosize=1;strokeColor=none;fillColor=none;" parent="WIyWlLk6GJQsqaUBKTNV-1" vertex="1">
          <mxGeometry x="255" y="1608" width="40" height="30" as="geometry" />
        </mxCell>
        <mxCell id="REr1-U52xPMIMC_tFasp-61" value="" style="edgeStyle=orthogonalEdgeStyle;rounded=0;orthogonalLoop=1;jettySize=auto;html=1;" parent="WIyWlLk6GJQsqaUBKTNV-1" source="REr1-U52xPMIMC_tFasp-49" target="REr1-U52xPMIMC_tFasp-60" edge="1">
          <mxGeometry relative="1" as="geometry">
            <mxPoint x="300" y="1640" as="sourcePoint" />
            <mxPoint x="230" y="1640" as="targetPoint" />
          </mxGeometry>
        </mxCell>
        <mxCell id="REr1-U52xPMIMC_tFasp-78" style="edgeStyle=orthogonalEdgeStyle;rounded=0;orthogonalLoop=1;jettySize=auto;html=1;entryX=0.5;entryY=0;entryDx=0;entryDy=0;" parent="WIyWlLk6GJQsqaUBKTNV-1" source="REr1-U52xPMIMC_tFasp-60" target="REr1-U52xPMIMC_tFasp-69" edge="1">
          <mxGeometry relative="1" as="geometry">
            <Array as="points">
              <mxPoint x="150" y="1720" />
              <mxPoint x="390" y="1720" />
            </Array>
          </mxGeometry>
        </mxCell>
        <mxCell id="REr1-U52xPMIMC_tFasp-60" value="&lt;div style=&quot;color: rgb(171, 178, 191); background-color: rgb(40, 44, 52); font-size: 14px; line-height: 19px; white-space: pre;&quot;&gt;&lt;div&gt;form_type &lt;span style=&quot;color: rgb(198, 120, 221);&quot;&gt;=&lt;/span&gt; None&lt;/div&gt;&lt;div&gt;DB_Name &lt;span style=&quot;color: rgb(198, 120, 221);&quot;&gt;=&lt;/span&gt; &lt;span style=&quot;background-color: light-dark(rgb(40, 44, 52), rgb(40, 44, 52)); color: light-dark(rgb(171, 178, 191), rgb(171, 178, 191));&quot;&gt;None&lt;/span&gt;&lt;/div&gt;&lt;div&gt;aMachineName &lt;span style=&quot;color: rgb(198, 120, 221);&quot;&gt;=&lt;/span&gt; None&lt;/div&gt;&lt;/div&gt;" style="whiteSpace=wrap;html=1;rounded=1;" parent="WIyWlLk6GJQsqaUBKTNV-1" vertex="1">
          <mxGeometry x="60" y="1600" width="180" height="80" as="geometry" />
        </mxCell>
        <mxCell id="REr1-U52xPMIMC_tFasp-70" value="" style="edgeStyle=orthogonalEdgeStyle;rounded=0;orthogonalLoop=1;jettySize=auto;html=1;" parent="WIyWlLk6GJQsqaUBKTNV-1" source="REr1-U52xPMIMC_tFasp-56" target="REr1-U52xPMIMC_tFasp-69" edge="1">
          <mxGeometry relative="1" as="geometry">
            <mxPoint x="390" y="1780" as="targetPoint" />
            <mxPoint x="700" y="1680" as="sourcePoint" />
            <Array as="points">
              <mxPoint x="700" y="1720" />
              <mxPoint x="390" y="1720" />
            </Array>
          </mxGeometry>
        </mxCell>
        <mxCell id="REr1-U52xPMIMC_tFasp-72" value="" style="edgeStyle=orthogonalEdgeStyle;rounded=0;orthogonalLoop=1;jettySize=auto;html=1;" parent="WIyWlLk6GJQsqaUBKTNV-1" source="REr1-U52xPMIMC_tFasp-69" target="REr1-U52xPMIMC_tFasp-71" edge="1">
          <mxGeometry relative="1" as="geometry" />
        </mxCell>
        <mxCell id="REr1-U52xPMIMC_tFasp-76" value="" style="edgeStyle=orthogonalEdgeStyle;rounded=0;orthogonalLoop=1;jettySize=auto;html=1;" parent="WIyWlLk6GJQsqaUBKTNV-1" source="REr1-U52xPMIMC_tFasp-69" target="REr1-U52xPMIMC_tFasp-75" edge="1">
          <mxGeometry relative="1" as="geometry" />
        </mxCell>
        <mxCell id="REr1-U52xPMIMC_tFasp-69" value="&lt;div style=&quot;color: rgb(171, 178, 191); background-color: rgb(40, 44, 52); font-size: 14px; line-height: 19px; white-space: pre;&quot;&gt;&lt;span style=&quot;color: rgb(198, 120, 221);&quot;&gt;if&lt;/span&gt; &lt;/div&gt;&lt;div style=&quot;color: rgb(171, 178, 191); background-color: rgb(40, 44, 52); font-size: 14px; line-height: 19px; white-space: pre;&quot;&gt;form_type &lt;span style=&quot;color: rgb(198, 120, 221);&quot;&gt;=&lt;/span&gt; &lt;span style=&quot;color: rgb(209, 154, 102);&quot;&gt;None&lt;/span&gt;:&lt;/div&gt;" style="rhombus;whiteSpace=wrap;html=1;" parent="WIyWlLk6GJQsqaUBKTNV-1" vertex="1">
          <mxGeometry x="290" y="1780" width="200" height="130" as="geometry" />
        </mxCell>
        <mxCell id="REr1-U52xPMIMC_tFasp-77" style="edgeStyle=orthogonalEdgeStyle;rounded=0;orthogonalLoop=1;jettySize=auto;html=1;entryX=0.5;entryY=0;entryDx=0;entryDy=0;" parent="WIyWlLk6GJQsqaUBKTNV-1" source="REr1-U52xPMIMC_tFasp-71" target="REr1-U52xPMIMC_tFasp-75" edge="1">
          <mxGeometry relative="1" as="geometry">
            <Array as="points">
              <mxPoint x="750" y="1950" />
              <mxPoint x="390" y="1950" />
            </Array>
          </mxGeometry>
        </mxCell>
        <mxCell id="REr1-U52xPMIMC_tFasp-71" value="&lt;div style=&quot;background-color: rgb(40, 44, 52); font-size: 14px; line-height: 19px; white-space: pre; color: rgb(171, 178, 191);&quot;&gt;&lt;span style=&quot;color: rgb(86, 182, 194);&quot;&gt;print&lt;/span&gt;&lt;span style=&quot;color: rgb(86, 182, 194);&quot;&gt;&lt;font color=&quot;#abb2bf&quot;&gt; a &lt;/font&gt;&lt;/span&gt;&lt;span style=&quot;color: rgb(152, 195, 121);&quot;&gt;Warning Unknown sheet_key &lt;/span&gt;&lt;/div&gt;" style="rounded=1;whiteSpace=wrap;html=1;" parent="WIyWlLk6GJQsqaUBKTNV-1" vertex="1">
          <mxGeometry x="580" y="1815" width="340" height="60" as="geometry" />
        </mxCell>
        <mxCell id="REr1-U52xPMIMC_tFasp-73" value="yes" style="text;html=1;align=center;verticalAlign=middle;resizable=0;points=[];autosize=1;strokeColor=none;fillColor=none;" parent="WIyWlLk6GJQsqaUBKTNV-1" vertex="1">
          <mxGeometry x="520" y="1815" width="40" height="30" as="geometry" />
        </mxCell>
        <mxCell id="REr1-U52xPMIMC_tFasp-81" value="" style="edgeStyle=orthogonalEdgeStyle;rounded=0;orthogonalLoop=1;jettySize=auto;html=1;" parent="WIyWlLk6GJQsqaUBKTNV-1" source="REr1-U52xPMIMC_tFasp-75" target="REr1-U52xPMIMC_tFasp-80" edge="1">
          <mxGeometry relative="1" as="geometry" />
        </mxCell>
        <mxCell id="REr1-U52xPMIMC_tFasp-75" value="&lt;div style=&quot;color: rgb(171, 178, 191); background-color: rgb(40, 44, 52); font-size: 14px; line-height: 19px; white-space: pre;&quot;&gt;&lt;span style=&quot;color: rgb(198, 120, 221);&quot;&gt;if&lt;/span&gt; &lt;/div&gt;&lt;div style=&quot;color: rgb(171, 178, 191); background-color: rgb(40, 44, 52); font-size: 14px; line-height: 19px; white-space: pre;&quot;&gt;&lt;div style=&quot;line-height: 19px;&quot;&gt;user_company&lt;/div&gt;&lt;/div&gt;" style="rhombus;whiteSpace=wrap;html=1;" parent="WIyWlLk6GJQsqaUBKTNV-1" vertex="1">
          <mxGeometry x="300" y="1990" width="180" height="110" as="geometry" />
        </mxCell>
        <mxCell id="REr1-U52xPMIMC_tFasp-79" value="No" style="text;html=1;align=center;verticalAlign=middle;resizable=0;points=[];autosize=1;strokeColor=none;fillColor=none;" parent="WIyWlLk6GJQsqaUBKTNV-1" vertex="1">
          <mxGeometry x="350" y="1910" width="40" height="30" as="geometry" />
        </mxCell>
        <mxCell id="REr1-U52xPMIMC_tFasp-80" value="&lt;div style=&quot;color: rgb(171, 178, 191); background-color: rgb(40, 44, 52); font-size: 14px; line-height: 19px; white-space: pre;&quot;&gt;&lt;div&gt;machines &lt;span style=&quot;color: rgb(198, 120, 221);&quot;&gt;=&lt;/span&gt; the Machine data for the company and the DB&lt;/div&gt;&lt;div&gt;projects &lt;span style=&quot;color: rgb(198, 120, 221);&quot;&gt;=&lt;/span&gt; the Projects data for the company&lt;/div&gt;&lt;/div&gt;" style="rounded=1;whiteSpace=wrap;html=1;" parent="WIyWlLk6GJQsqaUBKTNV-1" vertex="1">
          <mxGeometry x="550" y="2015" width="400" height="60" as="geometry" />
        </mxCell>
        <mxCell id="REr1-U52xPMIMC_tFasp-82" value="yes" style="text;html=1;align=center;verticalAlign=middle;resizable=0;points=[];autosize=1;strokeColor=none;fillColor=none;" parent="WIyWlLk6GJQsqaUBKTNV-1" vertex="1">
          <mxGeometry x="500" y="2008" width="40" height="30" as="geometry" />
        </mxCell>
        <mxCell id="REr1-U52xPMIMC_tFasp-85" value="" style="edgeStyle=orthogonalEdgeStyle;rounded=0;orthogonalLoop=1;jettySize=auto;html=1;" parent="WIyWlLk6GJQsqaUBKTNV-1" source="REr1-U52xPMIMC_tFasp-75" target="REr1-U52xPMIMC_tFasp-84" edge="1">
          <mxGeometry relative="1" as="geometry">
            <mxPoint x="210" y="2045" as="targetPoint" />
            <mxPoint x="300" y="2045" as="sourcePoint" />
          </mxGeometry>
        </mxCell>
        <mxCell id="REr1-U52xPMIMC_tFasp-91" style="edgeStyle=orthogonalEdgeStyle;rounded=0;orthogonalLoop=1;jettySize=auto;html=1;entryX=0.5;entryY=0;entryDx=0;entryDy=0;" parent="WIyWlLk6GJQsqaUBKTNV-1" source="REr1-U52xPMIMC_tFasp-84" target="REr1-U52xPMIMC_tFasp-89" edge="1">
          <mxGeometry relative="1" as="geometry">
            <Array as="points">
              <mxPoint x="125" y="2160" />
              <mxPoint x="390" y="2160" />
            </Array>
          </mxGeometry>
        </mxCell>
        <mxCell id="REr1-U52xPMIMC_tFasp-84" value="&lt;div style=&quot;color: rgb(171, 178, 191); background-color: rgb(40, 44, 52); font-size: 14px; line-height: 19px; white-space: pre;&quot;&gt;&lt;div&gt;machines &lt;span style=&quot;color: rgb(198, 120, 221);&quot;&gt;=&lt;/span&gt; empty queryset&lt;/div&gt;&lt;div&gt;projects &lt;span style=&quot;color: rgb(198, 120, 221);&quot;&gt;=&lt;/span&gt; empty queryset&lt;span style=&quot;color: rgb(92, 99, 112); font-style: italic; background-color: light-dark(rgb(40, 44, 52), rgb(40, 44, 52));&quot;&gt; &lt;/span&gt;&lt;/div&gt;&lt;/div&gt;" style="rounded=1;whiteSpace=wrap;html=1;" parent="WIyWlLk6GJQsqaUBKTNV-1" vertex="1">
          <mxGeometry x="10" y="2015" width="230" height="60" as="geometry" />
        </mxCell>
        <mxCell id="REr1-U52xPMIMC_tFasp-86" value="No" style="text;html=1;align=center;verticalAlign=middle;resizable=0;points=[];autosize=1;strokeColor=none;fillColor=none;" parent="WIyWlLk6GJQsqaUBKTNV-1" vertex="1">
          <mxGeometry x="260" y="2018" width="40" height="30" as="geometry" />
        </mxCell>
        <mxCell id="REr1-U52xPMIMC_tFasp-90" value="" style="edgeStyle=orthogonalEdgeStyle;rounded=0;orthogonalLoop=1;jettySize=auto;html=1;" parent="WIyWlLk6GJQsqaUBKTNV-1" source="REr1-U52xPMIMC_tFasp-80" target="REr1-U52xPMIMC_tFasp-89" edge="1">
          <mxGeometry relative="1" as="geometry">
            <mxPoint x="390" y="2200" as="targetPoint" />
            <mxPoint x="750" y="2075" as="sourcePoint" />
            <Array as="points">
              <mxPoint x="750" y="2160" />
            </Array>
          </mxGeometry>
        </mxCell>
        <mxCell id="REr1-U52xPMIMC_tFasp-93" value="" style="edgeStyle=orthogonalEdgeStyle;rounded=0;orthogonalLoop=1;jettySize=auto;html=1;" parent="WIyWlLk6GJQsqaUBKTNV-1" source="REr1-U52xPMIMC_tFasp-89" target="REr1-U52xPMIMC_tFasp-92" edge="1">
          <mxGeometry relative="1" as="geometry" />
        </mxCell>
        <mxCell id="REr1-U52xPMIMC_tFasp-89" value="&lt;div style=&quot;color: rgb(171, 178, 191); background-color: rgb(40, 44, 52); font-size: 14px; line-height: 19px; white-space: pre;&quot;&gt;form = the machine data from the FormDataSheet&lt;/div&gt;" style="rounded=1;whiteSpace=wrap;html=1;" parent="WIyWlLk6GJQsqaUBKTNV-1" vertex="1">
          <mxGeometry x="230" y="2210" width="320" height="60" as="geometry" />
        </mxCell>
        <mxCell id="REr1-U52xPMIMC_tFasp-104" value="" style="edgeStyle=orthogonalEdgeStyle;rounded=0;orthogonalLoop=1;jettySize=auto;html=1;" parent="WIyWlLk6GJQsqaUBKTNV-1" source="REr1-U52xPMIMC_tFasp-92" target="REr1-U52xPMIMC_tFasp-103" edge="1">
          <mxGeometry relative="1" as="geometry" />
        </mxCell>
        <mxCell id="REr1-U52xPMIMC_tFasp-92" value="&lt;div style=&quot;color: rgb(171, 178, 191); background-color: rgb(40, 44, 52); font-size: 14px; line-height: 19px; white-space: pre;&quot;&gt;&lt;div&gt;aSection01Show &lt;span style=&quot;color: rgb(198, 120, 221);&quot;&gt;=&lt;/span&gt; &lt;span style=&quot;color: rgb(152, 195, 121);&quot;&gt;&quot;Yes&quot;&lt;/span&gt;&lt;/div&gt;&lt;div&gt;aSection02Show &lt;span style=&quot;color: rgb(198, 120, 221);&quot;&gt;=&lt;/span&gt; &lt;span style=&quot;color: rgb(152, 195, 121);&quot;&gt;&quot;Yes&quot;&lt;/span&gt;&lt;/div&gt;&lt;div&gt;aSection03Show &lt;span style=&quot;color: rgb(198, 120, 221);&quot;&gt;=&lt;/span&gt; &lt;span style=&quot;color: rgb(152, 195, 121);&quot;&gt;&quot;Yes&quot;&lt;/span&gt;&lt;/div&gt;&lt;div&gt;aSection04Show &lt;span style=&quot;color: rgb(198, 120, 221);&quot;&gt;=&lt;/span&gt; &lt;span style=&quot;color: rgb(152, 195, 121);&quot;&gt;&quot;Yes&quot;&lt;/span&gt;&lt;/div&gt;&lt;div&gt;aSection05Show &lt;span style=&quot;color: rgb(198, 120, 221);&quot;&gt;=&lt;/span&gt; &lt;span style=&quot;color: rgb(152, 195, 121);&quot;&gt;&quot;Yes&quot;&lt;/span&gt;&lt;/div&gt;&lt;div&gt;aSection06Show &lt;span style=&quot;color: rgb(198, 120, 221);&quot;&gt;=&lt;/span&gt; &lt;span style=&quot;color: rgb(152, 195, 121);&quot;&gt;&quot;Yes&quot;&lt;/span&gt;&lt;/div&gt;&lt;div&gt;aSection07Show &lt;span style=&quot;color: rgb(198, 120, 221);&quot;&gt;=&lt;/span&gt; &lt;span style=&quot;color: rgb(152, 195, 121);&quot;&gt;&quot;Yes&quot;&lt;/span&gt;&lt;/div&gt;&lt;div&gt;aSection08Show &lt;span style=&quot;color: rgb(198, 120, 221);&quot;&gt;=&lt;/span&gt; &lt;span style=&quot;color: rgb(152, 195, 121);&quot;&gt;&quot;Yes&quot;&lt;/span&gt;&lt;/div&gt;&lt;div&gt;aSection09Show &lt;span style=&quot;color: rgb(198, 120, 221);&quot;&gt;=&lt;/span&gt; &lt;span style=&quot;color: rgb(152, 195, 121);&quot;&gt;&quot;Yes&quot;&lt;/span&gt;&lt;/div&gt;&lt;div&gt;aSection10Show &lt;span style=&quot;color: rgb(198, 120, 221);&quot;&gt;=&lt;/span&gt; &lt;span style=&quot;color: rgb(152, 195, 121);&quot;&gt;&quot;Yes&quot;&lt;/span&gt;&lt;/div&gt;&lt;/div&gt;" style="rounded=1;whiteSpace=wrap;html=1;" parent="WIyWlLk6GJQsqaUBKTNV-1" vertex="1">
          <mxGeometry x="290" y="2350" width="200" height="230" as="geometry" />
        </mxCell>
        <mxCell id="REr1-U52xPMIMC_tFasp-106" value="" style="edgeStyle=orthogonalEdgeStyle;rounded=0;orthogonalLoop=1;jettySize=auto;html=1;" parent="WIyWlLk6GJQsqaUBKTNV-1" source="REr1-U52xPMIMC_tFasp-103" target="REr1-U52xPMIMC_tFasp-105" edge="1">
          <mxGeometry relative="1" as="geometry" />
        </mxCell>
        <mxCell id="REr1-U52xPMIMC_tFasp-103" value="&lt;div style=&quot;color: rgb(171, 178, 191); background-color: rgb(40, 44, 52); font-size: 14px; line-height: 19px; white-space: pre;&quot;&gt;&lt;span style=&quot;color: #c678dd;&quot;&gt;for&lt;/span&gt; i &lt;span style=&quot;color: #c678dd;&quot;&gt;in&lt;/span&gt; &lt;span style=&quot;color: #56b6c2;&quot;&gt;range&lt;/span&gt;(&lt;span style=&quot;color: #d19a66;&quot;&gt;1&lt;/span&gt;, &lt;span style=&quot;color: #d19a66;&quot;&gt;21&lt;/span&gt;)&lt;/div&gt;" style="shape=hexagon;perimeter=hexagonPerimeter2;whiteSpace=wrap;html=1;fixedSize=1;rounded=1;" parent="WIyWlLk6GJQsqaUBKTNV-1" vertex="1">
          <mxGeometry x="310" y="2630" width="160" height="80" as="geometry" />
        </mxCell>
        <mxCell id="REr1-U52xPMIMC_tFasp-108" style="edgeStyle=orthogonalEdgeStyle;rounded=0;orthogonalLoop=1;jettySize=auto;html=1;" parent="WIyWlLk6GJQsqaUBKTNV-1" source="REr1-U52xPMIMC_tFasp-105" target="REr1-U52xPMIMC_tFasp-103" edge="1">
          <mxGeometry relative="1" as="geometry">
            <Array as="points">
              <mxPoint x="680" y="2760" />
              <mxPoint x="440" y="2760" />
            </Array>
          </mxGeometry>
        </mxCell>
        <mxCell id="REr1-U52xPMIMC_tFasp-105" value="&lt;div style=&quot;background-color: rgb(40, 44, 52); font-size: 14px; line-height: 19px; white-space: pre; color: rgb(171, 178, 191);&quot;&gt;&lt;span style=&quot;color: rgb(152, 195, 121);&quot;&gt;aSection01Field&lt;/span&gt;&lt;span style=&quot;color: rgb(152, 195, 121);&quot;&gt;&lt;font color=&quot;#d19a66&quot;&gt;(i)&lt;/font&gt;&lt;/span&gt;&lt;span style=&quot;color: rgb(152, 195, 121);&quot;&gt;Show =&lt;/span&gt;&lt;font color=&quot;rgba(0, 0, 0, 0)&quot;&gt; &lt;/font&gt;&lt;span style=&quot;color: rgb(152, 195, 121);&quot;&gt;&quot;Yes&quot;&lt;/span&gt;&lt;/div&gt;" style="rounded=1;whiteSpace=wrap;html=1;" parent="WIyWlLk6GJQsqaUBKTNV-1" vertex="1">
          <mxGeometry x="530" y="2640" width="300" height="60" as="geometry" />
        </mxCell>
        <mxCell id="REr1-U52xPMIMC_tFasp-107" value="Next" style="text;html=1;align=center;verticalAlign=middle;resizable=0;points=[];autosize=1;strokeColor=none;fillColor=none;" parent="WIyWlLk6GJQsqaUBKTNV-1" vertex="1">
          <mxGeometry x="490" y="2730" width="50" height="30" as="geometry" />
        </mxCell>
        <mxCell id="REr1-U52xPMIMC_tFasp-110" value="Done" style="text;html=1;align=center;verticalAlign=middle;resizable=0;points=[];autosize=1;strokeColor=none;fillColor=none;" parent="WIyWlLk6GJQsqaUBKTNV-1" vertex="1">
          <mxGeometry x="345" y="2738" width="50" height="30" as="geometry" />
        </mxCell>
        <mxCell id="REr1-U52xPMIMC_tFasp-111" value="" style="edgeStyle=orthogonalEdgeStyle;rounded=0;orthogonalLoop=1;jettySize=auto;html=1;" parent="WIyWlLk6GJQsqaUBKTNV-1" source="REr1-U52xPMIMC_tFasp-113" target="REr1-U52xPMIMC_tFasp-115" edge="1">
          <mxGeometry relative="1" as="geometry" />
        </mxCell>
        <mxCell id="REr1-U52xPMIMC_tFasp-114" style="edgeStyle=orthogonalEdgeStyle;rounded=0;orthogonalLoop=1;jettySize=auto;html=1;" parent="WIyWlLk6GJQsqaUBKTNV-1" source="REr1-U52xPMIMC_tFasp-115" target="REr1-U52xPMIMC_tFasp-113" edge="1">
          <mxGeometry relative="1" as="geometry">
            <Array as="points">
              <mxPoint x="680" y="2940" />
              <mxPoint x="440" y="2940" />
            </Array>
          </mxGeometry>
        </mxCell>
        <mxCell id="REr1-U52xPMIMC_tFasp-115" value="&lt;div style=&quot;background-color: rgb(40, 44, 52); font-size: 14px; line-height: 19px; white-space: pre; color: rgb(171, 178, 191);&quot;&gt;&lt;span style=&quot;color: rgb(152, 195, 121);&quot;&gt;aSection02Field&lt;/span&gt;&lt;span style=&quot;color: rgb(152, 195, 121);&quot;&gt;&lt;font color=&quot;#d19a66&quot;&gt;(i)&lt;/font&gt;&lt;/span&gt;&lt;span style=&quot;color: rgb(152, 195, 121);&quot;&gt;Show =&lt;/span&gt;&lt;font color=&quot;rgba(0, 0, 0, 0)&quot;&gt; &lt;/font&gt;&lt;span style=&quot;color: rgb(152, 195, 121);&quot;&gt;&quot;Yes&quot;&lt;/span&gt;&lt;/div&gt;" style="rounded=1;whiteSpace=wrap;html=1;" parent="WIyWlLk6GJQsqaUBKTNV-1" vertex="1">
          <mxGeometry x="530" y="2820" width="300" height="60" as="geometry" />
        </mxCell>
        <mxCell id="REr1-U52xPMIMC_tFasp-116" value="Next" style="text;html=1;align=center;verticalAlign=middle;resizable=0;points=[];autosize=1;strokeColor=none;fillColor=none;" parent="WIyWlLk6GJQsqaUBKTNV-1" vertex="1">
          <mxGeometry x="490" y="2910" width="50" height="30" as="geometry" />
        </mxCell>
        <mxCell id="REr1-U52xPMIMC_tFasp-118" value="" style="edgeStyle=orthogonalEdgeStyle;rounded=0;orthogonalLoop=1;jettySize=auto;html=1;" parent="WIyWlLk6GJQsqaUBKTNV-1" source="REr1-U52xPMIMC_tFasp-103" target="REr1-U52xPMIMC_tFasp-113" edge="1">
          <mxGeometry relative="1" as="geometry">
            <mxPoint x="390" y="2840" as="targetPoint" />
            <mxPoint x="390" y="2710" as="sourcePoint" />
          </mxGeometry>
        </mxCell>
        <mxCell id="REr1-U52xPMIMC_tFasp-119" style="edgeStyle=orthogonalEdgeStyle;rounded=0;orthogonalLoop=1;jettySize=auto;html=1;" parent="WIyWlLk6GJQsqaUBKTNV-1" source="REr1-U52xPMIMC_tFasp-121" edge="1">
          <mxGeometry relative="1" as="geometry">
            <mxPoint x="390" y="3040" as="targetPoint" />
          </mxGeometry>
        </mxCell>
        <mxCell id="REr1-U52xPMIMC_tFasp-113" value="&lt;div style=&quot;color: rgb(171, 178, 191); background-color: rgb(40, 44, 52); font-size: 14px; line-height: 19px; white-space: pre;&quot;&gt;&lt;span style=&quot;color: #c678dd;&quot;&gt;for&lt;/span&gt; i &lt;span style=&quot;color: #c678dd;&quot;&gt;in&lt;/span&gt; &lt;span style=&quot;color: #56b6c2;&quot;&gt;range&lt;/span&gt;(&lt;span style=&quot;color: #d19a66;&quot;&gt;1&lt;/span&gt;, &lt;span style=&quot;color: #d19a66;&quot;&gt;21&lt;/span&gt;)&lt;/div&gt;" style="shape=hexagon;perimeter=hexagonPerimeter2;whiteSpace=wrap;html=1;fixedSize=1;rounded=1;" parent="WIyWlLk6GJQsqaUBKTNV-1" vertex="1">
          <mxGeometry x="310" y="2810" width="160" height="80" as="geometry" />
        </mxCell>
        <mxCell id="REr1-U52xPMIMC_tFasp-120" value="" style="edgeStyle=orthogonalEdgeStyle;rounded=0;orthogonalLoop=1;jettySize=auto;html=1;" parent="WIyWlLk6GJQsqaUBKTNV-1" source="REr1-U52xPMIMC_tFasp-121" target="REr1-U52xPMIMC_tFasp-123" edge="1">
          <mxGeometry relative="1" as="geometry" />
        </mxCell>
        <mxCell id="REr1-U52xPMIMC_tFasp-122" style="edgeStyle=orthogonalEdgeStyle;rounded=0;orthogonalLoop=1;jettySize=auto;html=1;" parent="WIyWlLk6GJQsqaUBKTNV-1" source="REr1-U52xPMIMC_tFasp-123" target="REr1-U52xPMIMC_tFasp-121" edge="1">
          <mxGeometry relative="1" as="geometry">
            <Array as="points">
              <mxPoint x="680" y="3110" />
              <mxPoint x="440" y="3110" />
            </Array>
          </mxGeometry>
        </mxCell>
        <mxCell id="REr1-U52xPMIMC_tFasp-123" value="&lt;div style=&quot;background-color: rgb(40, 44, 52); font-size: 14px; line-height: 19px; white-space: pre; color: rgb(171, 178, 191);&quot;&gt;&lt;span style=&quot;color: rgb(152, 195, 121);&quot;&gt;aSection03Field&lt;/span&gt;&lt;span style=&quot;color: rgb(152, 195, 121);&quot;&gt;&lt;font color=&quot;#d19a66&quot;&gt;(i)&lt;/font&gt;&lt;/span&gt;&lt;span style=&quot;color: rgb(152, 195, 121);&quot;&gt;Show =&lt;/span&gt;&lt;font color=&quot;rgba(0, 0, 0, 0)&quot;&gt; &lt;/font&gt;&lt;span style=&quot;color: rgb(152, 195, 121);&quot;&gt;&quot;Yes&quot;&lt;/span&gt;&lt;/div&gt;" style="rounded=1;whiteSpace=wrap;html=1;" parent="WIyWlLk6GJQsqaUBKTNV-1" vertex="1">
          <mxGeometry x="530" y="2990" width="300" height="60" as="geometry" />
        </mxCell>
        <mxCell id="REr1-U52xPMIMC_tFasp-124" value="Next" style="text;html=1;align=center;verticalAlign=middle;resizable=0;points=[];autosize=1;strokeColor=none;fillColor=none;" parent="WIyWlLk6GJQsqaUBKTNV-1" vertex="1">
          <mxGeometry x="490" y="3080" width="50" height="30" as="geometry" />
        </mxCell>
        <mxCell id="REr1-U52xPMIMC_tFasp-125" value="Done" style="text;html=1;align=center;verticalAlign=middle;resizable=0;points=[];autosize=1;strokeColor=none;fillColor=none;" parent="WIyWlLk6GJQsqaUBKTNV-1" vertex="1">
          <mxGeometry x="345" y="3088" width="50" height="30" as="geometry" />
        </mxCell>
        <mxCell id="REr1-U52xPMIMC_tFasp-126" value="" style="edgeStyle=orthogonalEdgeStyle;rounded=0;orthogonalLoop=1;jettySize=auto;html=1;" parent="WIyWlLk6GJQsqaUBKTNV-1" source="REr1-U52xPMIMC_tFasp-131" target="REr1-U52xPMIMC_tFasp-128" edge="1">
          <mxGeometry relative="1" as="geometry" />
        </mxCell>
        <mxCell id="REr1-U52xPMIMC_tFasp-127" style="edgeStyle=orthogonalEdgeStyle;rounded=0;orthogonalLoop=1;jettySize=auto;html=1;" parent="WIyWlLk6GJQsqaUBKTNV-1" source="REr1-U52xPMIMC_tFasp-128" target="REr1-U52xPMIMC_tFasp-131" edge="1">
          <mxGeometry relative="1" as="geometry">
            <Array as="points">
              <mxPoint x="680" y="3290" />
              <mxPoint x="440" y="3290" />
            </Array>
          </mxGeometry>
        </mxCell>
        <mxCell id="REr1-U52xPMIMC_tFasp-128" value="&lt;div style=&quot;background-color: rgb(40, 44, 52); font-size: 14px; line-height: 19px; white-space: pre; color: rgb(171, 178, 191);&quot;&gt;&lt;span style=&quot;color: rgb(152, 195, 121);&quot;&gt;aSection04Field&lt;/span&gt;&lt;span style=&quot;color: rgb(152, 195, 121);&quot;&gt;&lt;font color=&quot;#d19a66&quot;&gt;(i)&lt;/font&gt;&lt;/span&gt;&lt;span style=&quot;color: rgb(152, 195, 121);&quot;&gt;Show =&lt;/span&gt;&lt;font color=&quot;rgba(0, 0, 0, 0)&quot;&gt; &lt;/font&gt;&lt;span style=&quot;color: rgb(152, 195, 121);&quot;&gt;&quot;Yes&quot;&lt;/span&gt;&lt;/div&gt;" style="rounded=1;whiteSpace=wrap;html=1;" parent="WIyWlLk6GJQsqaUBKTNV-1" vertex="1">
          <mxGeometry x="530" y="3170" width="300" height="60" as="geometry" />
        </mxCell>
        <mxCell id="REr1-U52xPMIMC_tFasp-129" value="Next" style="text;html=1;align=center;verticalAlign=middle;resizable=0;points=[];autosize=1;strokeColor=none;fillColor=none;" parent="WIyWlLk6GJQsqaUBKTNV-1" vertex="1">
          <mxGeometry x="490" y="3260" width="50" height="30" as="geometry" />
        </mxCell>
        <mxCell id="REr1-U52xPMIMC_tFasp-130" value="" style="edgeStyle=orthogonalEdgeStyle;rounded=0;orthogonalLoop=1;jettySize=auto;html=1;" parent="WIyWlLk6GJQsqaUBKTNV-1" source="REr1-U52xPMIMC_tFasp-121" target="REr1-U52xPMIMC_tFasp-131" edge="1">
          <mxGeometry relative="1" as="geometry">
            <mxPoint x="390" y="3190" as="targetPoint" />
            <mxPoint x="390" y="3060" as="sourcePoint" />
          </mxGeometry>
        </mxCell>
        <mxCell id="REr1-U52xPMIMC_tFasp-131" value="&lt;div style=&quot;color: rgb(171, 178, 191); background-color: rgb(40, 44, 52); font-size: 14px; line-height: 19px; white-space: pre;&quot;&gt;&lt;span style=&quot;color: #c678dd;&quot;&gt;for&lt;/span&gt; i &lt;span style=&quot;color: #c678dd;&quot;&gt;in&lt;/span&gt; &lt;span style=&quot;color: #56b6c2;&quot;&gt;range&lt;/span&gt;(&lt;span style=&quot;color: #d19a66;&quot;&gt;1&lt;/span&gt;, &lt;span style=&quot;color: #d19a66;&quot;&gt;21&lt;/span&gt;)&lt;/div&gt;" style="shape=hexagon;perimeter=hexagonPerimeter2;whiteSpace=wrap;html=1;fixedSize=1;rounded=1;" parent="WIyWlLk6GJQsqaUBKTNV-1" vertex="1">
          <mxGeometry x="310" y="3160" width="160" height="80" as="geometry" />
        </mxCell>
        <mxCell id="REr1-U52xPMIMC_tFasp-132" value="" style="edgeStyle=orthogonalEdgeStyle;rounded=0;orthogonalLoop=1;jettySize=auto;html=1;" parent="WIyWlLk6GJQsqaUBKTNV-1" source="REr1-U52xPMIMC_tFasp-113" target="REr1-U52xPMIMC_tFasp-121" edge="1">
          <mxGeometry relative="1" as="geometry">
            <mxPoint x="390" y="3020" as="targetPoint" />
            <mxPoint x="390" y="2890" as="sourcePoint" />
          </mxGeometry>
        </mxCell>
        <mxCell id="REr1-U52xPMIMC_tFasp-121" value="&lt;div style=&quot;color: rgb(171, 178, 191); background-color: rgb(40, 44, 52); font-size: 14px; line-height: 19px; white-space: pre;&quot;&gt;&lt;span style=&quot;color: #c678dd;&quot;&gt;for&lt;/span&gt; i &lt;span style=&quot;color: #c678dd;&quot;&gt;in&lt;/span&gt; &lt;span style=&quot;color: #56b6c2;&quot;&gt;range&lt;/span&gt;(&lt;span style=&quot;color: #d19a66;&quot;&gt;1&lt;/span&gt;, &lt;span style=&quot;color: #d19a66;&quot;&gt;21&lt;/span&gt;)&lt;/div&gt;" style="shape=hexagon;perimeter=hexagonPerimeter2;whiteSpace=wrap;html=1;fixedSize=1;rounded=1;" parent="WIyWlLk6GJQsqaUBKTNV-1" vertex="1">
          <mxGeometry x="310" y="2980" width="160" height="80" as="geometry" />
        </mxCell>
        <mxCell id="REr1-U52xPMIMC_tFasp-133" value="Done" style="text;html=1;align=center;verticalAlign=middle;resizable=0;points=[];autosize=1;strokeColor=none;fillColor=none;" parent="WIyWlLk6GJQsqaUBKTNV-1" vertex="1">
          <mxGeometry x="340" y="2910" width="50" height="30" as="geometry" />
        </mxCell>
        <mxCell id="REr1-U52xPMIMC_tFasp-135" value="" style="edgeStyle=orthogonalEdgeStyle;rounded=0;orthogonalLoop=1;jettySize=auto;html=1;" parent="WIyWlLk6GJQsqaUBKTNV-1" source="REr1-U52xPMIMC_tFasp-136" target="REr1-U52xPMIMC_tFasp-138" edge="1">
          <mxGeometry relative="1" as="geometry" />
        </mxCell>
        <mxCell id="REr1-U52xPMIMC_tFasp-137" style="edgeStyle=orthogonalEdgeStyle;rounded=0;orthogonalLoop=1;jettySize=auto;html=1;" parent="WIyWlLk6GJQsqaUBKTNV-1" source="REr1-U52xPMIMC_tFasp-138" target="REr1-U52xPMIMC_tFasp-136" edge="1">
          <mxGeometry relative="1" as="geometry">
            <Array as="points">
              <mxPoint x="680" y="3490" />
              <mxPoint x="440" y="3490" />
            </Array>
          </mxGeometry>
        </mxCell>
        <mxCell id="REr1-U52xPMIMC_tFasp-138" value="&lt;div style=&quot;background-color: rgb(40, 44, 52); font-size: 14px; line-height: 19px; white-space: pre; color: rgb(171, 178, 191);&quot;&gt;&lt;span style=&quot;color: rgb(152, 195, 121);&quot;&gt;aSection05Field&lt;/span&gt;&lt;span style=&quot;color: rgb(152, 195, 121);&quot;&gt;&lt;font color=&quot;#d19a66&quot;&gt;(i)&lt;/font&gt;&lt;/span&gt;&lt;span style=&quot;color: rgb(152, 195, 121);&quot;&gt;Show =&lt;/span&gt;&lt;font color=&quot;rgba(0, 0, 0, 0)&quot;&gt; &lt;/font&gt;&lt;span style=&quot;color: rgb(152, 195, 121);&quot;&gt;&quot;Yes&quot;&lt;/span&gt;&lt;/div&gt;" style="rounded=1;whiteSpace=wrap;html=1;" parent="WIyWlLk6GJQsqaUBKTNV-1" vertex="1">
          <mxGeometry x="530" y="3370" width="300" height="60" as="geometry" />
        </mxCell>
        <mxCell id="REr1-U52xPMIMC_tFasp-139" value="Next" style="text;html=1;align=center;verticalAlign=middle;resizable=0;points=[];autosize=1;strokeColor=none;fillColor=none;" parent="WIyWlLk6GJQsqaUBKTNV-1" vertex="1">
          <mxGeometry x="490" y="3460" width="50" height="30" as="geometry" />
        </mxCell>
        <mxCell id="REr1-U52xPMIMC_tFasp-140" value="Done" style="text;html=1;align=center;verticalAlign=middle;resizable=0;points=[];autosize=1;strokeColor=none;fillColor=none;" parent="WIyWlLk6GJQsqaUBKTNV-1" vertex="1">
          <mxGeometry x="345" y="3468" width="50" height="30" as="geometry" />
        </mxCell>
        <mxCell id="REr1-U52xPMIMC_tFasp-141" value="" style="edgeStyle=orthogonalEdgeStyle;rounded=0;orthogonalLoop=1;jettySize=auto;html=1;" parent="WIyWlLk6GJQsqaUBKTNV-1" source="REr1-U52xPMIMC_tFasp-147" target="REr1-U52xPMIMC_tFasp-143" edge="1">
          <mxGeometry relative="1" as="geometry" />
        </mxCell>
        <mxCell id="REr1-U52xPMIMC_tFasp-142" style="edgeStyle=orthogonalEdgeStyle;rounded=0;orthogonalLoop=1;jettySize=auto;html=1;" parent="WIyWlLk6GJQsqaUBKTNV-1" source="REr1-U52xPMIMC_tFasp-143" target="REr1-U52xPMIMC_tFasp-147" edge="1">
          <mxGeometry relative="1" as="geometry">
            <Array as="points">
              <mxPoint x="680" y="3670" />
              <mxPoint x="440" y="3670" />
            </Array>
          </mxGeometry>
        </mxCell>
        <mxCell id="REr1-U52xPMIMC_tFasp-143" value="&lt;div style=&quot;background-color: rgb(40, 44, 52); font-size: 14px; line-height: 19px; white-space: pre; color: rgb(171, 178, 191);&quot;&gt;&lt;span style=&quot;color: rgb(152, 195, 121);&quot;&gt;aSection06Field&lt;/span&gt;&lt;span style=&quot;color: rgb(152, 195, 121);&quot;&gt;&lt;font color=&quot;#d19a66&quot;&gt;(i)&lt;/font&gt;&lt;/span&gt;&lt;span style=&quot;color: rgb(152, 195, 121);&quot;&gt;Show =&lt;/span&gt;&lt;font color=&quot;rgba(0, 0, 0, 0)&quot;&gt; &lt;/font&gt;&lt;span style=&quot;color: rgb(152, 195, 121);&quot;&gt;&quot;Yes&quot;&lt;/span&gt;&lt;/div&gt;" style="rounded=1;whiteSpace=wrap;html=1;" parent="WIyWlLk6GJQsqaUBKTNV-1" vertex="1">
          <mxGeometry x="530" y="3550" width="300" height="60" as="geometry" />
        </mxCell>
        <mxCell id="REr1-U52xPMIMC_tFasp-144" value="Next" style="text;html=1;align=center;verticalAlign=middle;resizable=0;points=[];autosize=1;strokeColor=none;fillColor=none;" parent="WIyWlLk6GJQsqaUBKTNV-1" vertex="1">
          <mxGeometry x="490" y="3640" width="50" height="30" as="geometry" />
        </mxCell>
        <mxCell id="REr1-U52xPMIMC_tFasp-145" value="" style="edgeStyle=orthogonalEdgeStyle;rounded=0;orthogonalLoop=1;jettySize=auto;html=1;" parent="WIyWlLk6GJQsqaUBKTNV-1" source="REr1-U52xPMIMC_tFasp-136" target="REr1-U52xPMIMC_tFasp-147" edge="1">
          <mxGeometry relative="1" as="geometry">
            <mxPoint x="390" y="3570" as="targetPoint" />
            <mxPoint x="390" y="3440" as="sourcePoint" />
          </mxGeometry>
        </mxCell>
        <mxCell id="REr1-U52xPMIMC_tFasp-146" style="edgeStyle=orthogonalEdgeStyle;rounded=0;orthogonalLoop=1;jettySize=auto;html=1;" parent="WIyWlLk6GJQsqaUBKTNV-1" source="REr1-U52xPMIMC_tFasp-160" edge="1">
          <mxGeometry relative="1" as="geometry">
            <mxPoint x="390" y="3770" as="targetPoint" />
          </mxGeometry>
        </mxCell>
        <mxCell id="REr1-U52xPMIMC_tFasp-147" value="&lt;div style=&quot;color: rgb(171, 178, 191); background-color: rgb(40, 44, 52); font-size: 14px; line-height: 19px; white-space: pre;&quot;&gt;&lt;span style=&quot;color: #c678dd;&quot;&gt;for&lt;/span&gt; i &lt;span style=&quot;color: #c678dd;&quot;&gt;in&lt;/span&gt; &lt;span style=&quot;color: #56b6c2;&quot;&gt;range&lt;/span&gt;(&lt;span style=&quot;color: #d19a66;&quot;&gt;1&lt;/span&gt;, &lt;span style=&quot;color: #d19a66;&quot;&gt;21&lt;/span&gt;)&lt;/div&gt;" style="shape=hexagon;perimeter=hexagonPerimeter2;whiteSpace=wrap;html=1;fixedSize=1;rounded=1;" parent="WIyWlLk6GJQsqaUBKTNV-1" vertex="1">
          <mxGeometry x="310" y="3540" width="160" height="80" as="geometry" />
        </mxCell>
        <mxCell id="REr1-U52xPMIMC_tFasp-148" value="" style="edgeStyle=orthogonalEdgeStyle;rounded=0;orthogonalLoop=1;jettySize=auto;html=1;" parent="WIyWlLk6GJQsqaUBKTNV-1" source="REr1-U52xPMIMC_tFasp-160" target="REr1-U52xPMIMC_tFasp-150" edge="1">
          <mxGeometry relative="1" as="geometry" />
        </mxCell>
        <mxCell id="REr1-U52xPMIMC_tFasp-149" style="edgeStyle=orthogonalEdgeStyle;rounded=0;orthogonalLoop=1;jettySize=auto;html=1;" parent="WIyWlLk6GJQsqaUBKTNV-1" source="REr1-U52xPMIMC_tFasp-150" target="REr1-U52xPMIMC_tFasp-160" edge="1">
          <mxGeometry relative="1" as="geometry">
            <Array as="points">
              <mxPoint x="680" y="3840" />
              <mxPoint x="440" y="3840" />
            </Array>
          </mxGeometry>
        </mxCell>
        <mxCell id="REr1-U52xPMIMC_tFasp-150" value="&lt;div style=&quot;background-color: rgb(40, 44, 52); font-size: 14px; line-height: 19px; white-space: pre; color: rgb(171, 178, 191);&quot;&gt;&lt;span style=&quot;color: rgb(152, 195, 121);&quot;&gt;aSection07Field&lt;/span&gt;&lt;span style=&quot;color: rgb(152, 195, 121);&quot;&gt;&lt;font color=&quot;#d19a66&quot;&gt;(i)&lt;/font&gt;&lt;/span&gt;&lt;span style=&quot;color: rgb(152, 195, 121);&quot;&gt;Show =&lt;/span&gt;&lt;font color=&quot;rgba(0, 0, 0, 0)&quot;&gt; &lt;/font&gt;&lt;span style=&quot;color: rgb(152, 195, 121);&quot;&gt;&quot;Yes&quot;&lt;/span&gt;&lt;/div&gt;" style="rounded=1;whiteSpace=wrap;html=1;" parent="WIyWlLk6GJQsqaUBKTNV-1" vertex="1">
          <mxGeometry x="530" y="3720" width="300" height="60" as="geometry" />
        </mxCell>
        <mxCell id="REr1-U52xPMIMC_tFasp-151" value="Next" style="text;html=1;align=center;verticalAlign=middle;resizable=0;points=[];autosize=1;strokeColor=none;fillColor=none;" parent="WIyWlLk6GJQsqaUBKTNV-1" vertex="1">
          <mxGeometry x="490" y="3810" width="50" height="30" as="geometry" />
        </mxCell>
        <mxCell id="REr1-U52xPMIMC_tFasp-152" value="Done" style="text;html=1;align=center;verticalAlign=middle;resizable=0;points=[];autosize=1;strokeColor=none;fillColor=none;" parent="WIyWlLk6GJQsqaUBKTNV-1" vertex="1">
          <mxGeometry x="345" y="3818" width="50" height="30" as="geometry" />
        </mxCell>
        <mxCell id="REr1-U52xPMIMC_tFasp-153" value="" style="edgeStyle=orthogonalEdgeStyle;rounded=0;orthogonalLoop=1;jettySize=auto;html=1;" parent="WIyWlLk6GJQsqaUBKTNV-1" source="REr1-U52xPMIMC_tFasp-158" target="REr1-U52xPMIMC_tFasp-155" edge="1">
          <mxGeometry relative="1" as="geometry" />
        </mxCell>
        <mxCell id="REr1-U52xPMIMC_tFasp-154" style="edgeStyle=orthogonalEdgeStyle;rounded=0;orthogonalLoop=1;jettySize=auto;html=1;" parent="WIyWlLk6GJQsqaUBKTNV-1" source="REr1-U52xPMIMC_tFasp-155" target="REr1-U52xPMIMC_tFasp-158" edge="1">
          <mxGeometry relative="1" as="geometry">
            <Array as="points">
              <mxPoint x="680" y="4020" />
              <mxPoint x="440" y="4020" />
            </Array>
          </mxGeometry>
        </mxCell>
        <mxCell id="REr1-U52xPMIMC_tFasp-155" value="&lt;div style=&quot;background-color: rgb(40, 44, 52); font-size: 14px; line-height: 19px; white-space: pre; color: rgb(171, 178, 191);&quot;&gt;&lt;span style=&quot;color: rgb(152, 195, 121);&quot;&gt;aSection08Field&lt;/span&gt;&lt;span style=&quot;color: rgb(152, 195, 121);&quot;&gt;&lt;font color=&quot;#d19a66&quot;&gt;(i)&lt;/font&gt;&lt;/span&gt;&lt;span style=&quot;color: rgb(152, 195, 121);&quot;&gt;Show =&lt;/span&gt;&lt;font color=&quot;rgba(0, 0, 0, 0)&quot;&gt; &lt;/font&gt;&lt;span style=&quot;color: rgb(152, 195, 121);&quot;&gt;&quot;Yes&quot;&lt;/span&gt;&lt;/div&gt;" style="rounded=1;whiteSpace=wrap;html=1;" parent="WIyWlLk6GJQsqaUBKTNV-1" vertex="1">
          <mxGeometry x="530" y="3900" width="300" height="60" as="geometry" />
        </mxCell>
        <mxCell id="REr1-U52xPMIMC_tFasp-156" value="Next" style="text;html=1;align=center;verticalAlign=middle;resizable=0;points=[];autosize=1;strokeColor=none;fillColor=none;" parent="WIyWlLk6GJQsqaUBKTNV-1" vertex="1">
          <mxGeometry x="490" y="3990" width="50" height="30" as="geometry" />
        </mxCell>
        <mxCell id="REr1-U52xPMIMC_tFasp-157" value="" style="edgeStyle=orthogonalEdgeStyle;rounded=0;orthogonalLoop=1;jettySize=auto;html=1;" parent="WIyWlLk6GJQsqaUBKTNV-1" source="REr1-U52xPMIMC_tFasp-160" target="REr1-U52xPMIMC_tFasp-158" edge="1">
          <mxGeometry relative="1" as="geometry">
            <mxPoint x="390" y="3920" as="targetPoint" />
            <mxPoint x="390" y="3790" as="sourcePoint" />
          </mxGeometry>
        </mxCell>
        <mxCell id="REr1-U52xPMIMC_tFasp-158" value="&lt;div style=&quot;color: rgb(171, 178, 191); background-color: rgb(40, 44, 52); font-size: 14px; line-height: 19px; white-space: pre;&quot;&gt;&lt;span style=&quot;color: #c678dd;&quot;&gt;for&lt;/span&gt; i &lt;span style=&quot;color: #c678dd;&quot;&gt;in&lt;/span&gt; &lt;span style=&quot;color: #56b6c2;&quot;&gt;range&lt;/span&gt;(&lt;span style=&quot;color: #d19a66;&quot;&gt;1&lt;/span&gt;, &lt;span style=&quot;color: #d19a66;&quot;&gt;21&lt;/span&gt;)&lt;/div&gt;" style="shape=hexagon;perimeter=hexagonPerimeter2;whiteSpace=wrap;html=1;fixedSize=1;rounded=1;" parent="WIyWlLk6GJQsqaUBKTNV-1" vertex="1">
          <mxGeometry x="310" y="3890" width="160" height="80" as="geometry" />
        </mxCell>
        <mxCell id="REr1-U52xPMIMC_tFasp-159" value="" style="edgeStyle=orthogonalEdgeStyle;rounded=0;orthogonalLoop=1;jettySize=auto;html=1;" parent="WIyWlLk6GJQsqaUBKTNV-1" source="REr1-U52xPMIMC_tFasp-147" target="REr1-U52xPMIMC_tFasp-160" edge="1">
          <mxGeometry relative="1" as="geometry">
            <mxPoint x="390" y="3750" as="targetPoint" />
            <mxPoint x="390" y="3620" as="sourcePoint" />
          </mxGeometry>
        </mxCell>
        <mxCell id="REr1-U52xPMIMC_tFasp-160" value="&lt;div style=&quot;color: rgb(171, 178, 191); background-color: rgb(40, 44, 52); font-size: 14px; line-height: 19px; white-space: pre;&quot;&gt;&lt;span style=&quot;color: #c678dd;&quot;&gt;for&lt;/span&gt; i &lt;span style=&quot;color: #c678dd;&quot;&gt;in&lt;/span&gt; &lt;span style=&quot;color: #56b6c2;&quot;&gt;range&lt;/span&gt;(&lt;span style=&quot;color: #d19a66;&quot;&gt;1&lt;/span&gt;, &lt;span style=&quot;color: #d19a66;&quot;&gt;21&lt;/span&gt;)&lt;/div&gt;" style="shape=hexagon;perimeter=hexagonPerimeter2;whiteSpace=wrap;html=1;fixedSize=1;rounded=1;" parent="WIyWlLk6GJQsqaUBKTNV-1" vertex="1">
          <mxGeometry x="310" y="3710" width="160" height="80" as="geometry" />
        </mxCell>
        <mxCell id="REr1-U52xPMIMC_tFasp-161" value="Done" style="text;html=1;align=center;verticalAlign=middle;resizable=0;points=[];autosize=1;strokeColor=none;fillColor=none;" parent="WIyWlLk6GJQsqaUBKTNV-1" vertex="1">
          <mxGeometry x="340" y="3640" width="50" height="30" as="geometry" />
        </mxCell>
        <mxCell id="REr1-U52xPMIMC_tFasp-162" value="" style="edgeStyle=orthogonalEdgeStyle;rounded=0;orthogonalLoop=1;jettySize=auto;html=1;" parent="WIyWlLk6GJQsqaUBKTNV-1" source="REr1-U52xPMIMC_tFasp-131" target="REr1-U52xPMIMC_tFasp-136" edge="1">
          <mxGeometry relative="1" as="geometry">
            <mxPoint x="390" y="3350" as="targetPoint" />
            <mxPoint x="390" y="3240" as="sourcePoint" />
          </mxGeometry>
        </mxCell>
        <mxCell id="REr1-U52xPMIMC_tFasp-136" value="&lt;div style=&quot;color: rgb(171, 178, 191); background-color: rgb(40, 44, 52); font-size: 14px; line-height: 19px; white-space: pre;&quot;&gt;&lt;span style=&quot;color: #c678dd;&quot;&gt;for&lt;/span&gt; i &lt;span style=&quot;color: #c678dd;&quot;&gt;in&lt;/span&gt; &lt;span style=&quot;color: #56b6c2;&quot;&gt;range&lt;/span&gt;(&lt;span style=&quot;color: #d19a66;&quot;&gt;1&lt;/span&gt;, &lt;span style=&quot;color: #d19a66;&quot;&gt;21&lt;/span&gt;)&lt;/div&gt;" style="shape=hexagon;perimeter=hexagonPerimeter2;whiteSpace=wrap;html=1;fixedSize=1;rounded=1;" parent="WIyWlLk6GJQsqaUBKTNV-1" vertex="1">
          <mxGeometry x="310" y="3360" width="160" height="80" as="geometry" />
        </mxCell>
        <mxCell id="REr1-U52xPMIMC_tFasp-163" value="Done" style="text;html=1;align=center;verticalAlign=middle;resizable=0;points=[];autosize=1;strokeColor=none;fillColor=none;" parent="WIyWlLk6GJQsqaUBKTNV-1" vertex="1">
          <mxGeometry x="335" y="3290" width="50" height="30" as="geometry" />
        </mxCell>
        <mxCell id="REr1-U52xPMIMC_tFasp-165" value="Done" style="text;html=1;align=center;verticalAlign=middle;resizable=0;points=[];autosize=1;strokeColor=none;fillColor=none;" parent="WIyWlLk6GJQsqaUBKTNV-1" vertex="1">
          <mxGeometry x="340" y="4020" width="50" height="30" as="geometry" />
        </mxCell>
        <mxCell id="REr1-U52xPMIMC_tFasp-167" value="" style="edgeStyle=orthogonalEdgeStyle;rounded=0;orthogonalLoop=1;jettySize=auto;html=1;" parent="WIyWlLk6GJQsqaUBKTNV-1" source="REr1-U52xPMIMC_tFasp-176" target="REr1-U52xPMIMC_tFasp-169" edge="1">
          <mxGeometry relative="1" as="geometry" />
        </mxCell>
        <mxCell id="REr1-U52xPMIMC_tFasp-168" style="edgeStyle=orthogonalEdgeStyle;rounded=0;orthogonalLoop=1;jettySize=auto;html=1;" parent="WIyWlLk6GJQsqaUBKTNV-1" source="REr1-U52xPMIMC_tFasp-169" target="REr1-U52xPMIMC_tFasp-176" edge="1">
          <mxGeometry relative="1" as="geometry">
            <Array as="points">
              <mxPoint x="680" y="4200" />
              <mxPoint x="440" y="4200" />
            </Array>
          </mxGeometry>
        </mxCell>
        <mxCell id="REr1-U52xPMIMC_tFasp-169" value="&lt;div style=&quot;background-color: rgb(40, 44, 52); font-size: 14px; line-height: 19px; white-space: pre; color: rgb(171, 178, 191);&quot;&gt;&lt;span style=&quot;color: rgb(152, 195, 121);&quot;&gt;aSection09Field&lt;/span&gt;&lt;span style=&quot;color: rgb(152, 195, 121);&quot;&gt;&lt;font color=&quot;#d19a66&quot;&gt;(i)&lt;/font&gt;&lt;/span&gt;&lt;span style=&quot;color: rgb(152, 195, 121);&quot;&gt;Show =&lt;/span&gt;&lt;font color=&quot;rgba(0, 0, 0, 0)&quot;&gt; &lt;/font&gt;&lt;span style=&quot;color: rgb(152, 195, 121);&quot;&gt;&quot;Yes&quot;&lt;/span&gt;&lt;/div&gt;" style="rounded=1;whiteSpace=wrap;html=1;" parent="WIyWlLk6GJQsqaUBKTNV-1" vertex="1">
          <mxGeometry x="530" y="4080" width="300" height="60" as="geometry" />
        </mxCell>
        <mxCell id="REr1-U52xPMIMC_tFasp-170" value="Next" style="text;html=1;align=center;verticalAlign=middle;resizable=0;points=[];autosize=1;strokeColor=none;fillColor=none;" parent="WIyWlLk6GJQsqaUBKTNV-1" vertex="1">
          <mxGeometry x="490" y="4170" width="50" height="30" as="geometry" />
        </mxCell>
        <mxCell id="REr1-U52xPMIMC_tFasp-171" value="Done" style="text;html=1;align=center;verticalAlign=middle;resizable=0;points=[];autosize=1;strokeColor=none;fillColor=none;" parent="WIyWlLk6GJQsqaUBKTNV-1" vertex="1">
          <mxGeometry x="345" y="4178" width="50" height="30" as="geometry" />
        </mxCell>
        <mxCell id="REr1-U52xPMIMC_tFasp-172" value="" style="edgeStyle=orthogonalEdgeStyle;rounded=0;orthogonalLoop=1;jettySize=auto;html=1;" parent="WIyWlLk6GJQsqaUBKTNV-1" source="REr1-U52xPMIMC_tFasp-175" target="REr1-U52xPMIMC_tFasp-173" edge="1">
          <mxGeometry relative="1" as="geometry" />
        </mxCell>
        <mxCell id="REr1-U52xPMIMC_tFasp-173" value="&lt;div style=&quot;background-color: rgb(40, 44, 52); font-size: 14px; line-height: 19px; white-space: pre; color: rgb(171, 178, 191);&quot;&gt;&lt;span style=&quot;color: rgb(152, 195, 121);&quot;&gt;aSection10Field&lt;/span&gt;&lt;span style=&quot;color: rgb(152, 195, 121);&quot;&gt;&lt;font color=&quot;#d19a66&quot;&gt;(i)&lt;/font&gt;&lt;/span&gt;&lt;span style=&quot;color: rgb(152, 195, 121);&quot;&gt;Show =&lt;/span&gt;&lt;font color=&quot;rgba(0, 0, 0, 0)&quot;&gt; &lt;/font&gt;&lt;span style=&quot;color: rgb(152, 195, 121);&quot;&gt;&quot;Yes&quot;&lt;/span&gt;&lt;/div&gt;" style="rounded=1;whiteSpace=wrap;html=1;" parent="WIyWlLk6GJQsqaUBKTNV-1" vertex="1">
          <mxGeometry x="530" y="4260" width="300" height="60" as="geometry" />
        </mxCell>
        <mxCell id="REr1-U52xPMIMC_tFasp-174" value="" style="edgeStyle=orthogonalEdgeStyle;rounded=0;orthogonalLoop=1;jettySize=auto;html=1;" parent="WIyWlLk6GJQsqaUBKTNV-1" source="REr1-U52xPMIMC_tFasp-176" target="REr1-U52xPMIMC_tFasp-175" edge="1">
          <mxGeometry relative="1" as="geometry">
            <mxPoint x="390" y="4280" as="targetPoint" />
            <mxPoint x="390" y="4150" as="sourcePoint" />
          </mxGeometry>
        </mxCell>
        <mxCell id="REr1-U52xPMIMC_tFasp-175" value="&lt;div style=&quot;color: rgb(171, 178, 191); background-color: rgb(40, 44, 52); font-size: 14px; line-height: 19px; white-space: pre;&quot;&gt;&lt;span style=&quot;color: #c678dd;&quot;&gt;for&lt;/span&gt; i &lt;span style=&quot;color: #c678dd;&quot;&gt;in&lt;/span&gt; &lt;span style=&quot;color: #56b6c2;&quot;&gt;range&lt;/span&gt;(&lt;span style=&quot;color: #d19a66;&quot;&gt;1&lt;/span&gt;, &lt;span style=&quot;color: #d19a66;&quot;&gt;21&lt;/span&gt;)&lt;/div&gt;" style="shape=hexagon;perimeter=hexagonPerimeter2;whiteSpace=wrap;html=1;fixedSize=1;rounded=1;" parent="WIyWlLk6GJQsqaUBKTNV-1" vertex="1">
          <mxGeometry x="310" y="4250" width="160" height="80" as="geometry" />
        </mxCell>
        <mxCell id="REr1-U52xPMIMC_tFasp-177" value="" style="edgeStyle=orthogonalEdgeStyle;rounded=0;orthogonalLoop=1;jettySize=auto;html=1;" parent="WIyWlLk6GJQsqaUBKTNV-1" source="REr1-U52xPMIMC_tFasp-158" target="REr1-U52xPMIMC_tFasp-176" edge="1">
          <mxGeometry relative="1" as="geometry">
            <mxPoint x="390" y="4130" as="targetPoint" />
            <mxPoint x="390" y="3970" as="sourcePoint" />
          </mxGeometry>
        </mxCell>
        <mxCell id="REr1-U52xPMIMC_tFasp-176" value="&lt;div style=&quot;color: rgb(171, 178, 191); background-color: rgb(40, 44, 52); font-size: 14px; line-height: 19px; white-space: pre;&quot;&gt;&lt;span style=&quot;color: #c678dd;&quot;&gt;for&lt;/span&gt; i &lt;span style=&quot;color: #c678dd;&quot;&gt;in&lt;/span&gt; &lt;span style=&quot;color: #56b6c2;&quot;&gt;range&lt;/span&gt;(&lt;span style=&quot;color: #d19a66;&quot;&gt;1&lt;/span&gt;, &lt;span style=&quot;color: #d19a66;&quot;&gt;21&lt;/span&gt;)&lt;/div&gt;" style="shape=hexagon;perimeter=hexagonPerimeter2;whiteSpace=wrap;html=1;fixedSize=1;rounded=1;" parent="WIyWlLk6GJQsqaUBKTNV-1" vertex="1">
          <mxGeometry x="310" y="4070" width="160" height="80" as="geometry" />
        </mxCell>
        <mxCell id="REr1-U52xPMIMC_tFasp-179" style="edgeStyle=orthogonalEdgeStyle;rounded=0;orthogonalLoop=1;jettySize=auto;html=1;" parent="WIyWlLk6GJQsqaUBKTNV-1" source="REr1-U52xPMIMC_tFasp-173" target="REr1-U52xPMIMC_tFasp-175" edge="1">
          <mxGeometry relative="1" as="geometry">
            <Array as="points">
              <mxPoint x="680" y="4390" />
              <mxPoint x="431" y="4390" />
            </Array>
          </mxGeometry>
        </mxCell>
        <mxCell id="REr1-U52xPMIMC_tFasp-180" value="Next" style="text;html=1;align=center;verticalAlign=middle;resizable=0;points=[];autosize=1;strokeColor=none;fillColor=none;" parent="WIyWlLk6GJQsqaUBKTNV-1" vertex="1">
          <mxGeometry x="490" y="4360" width="50" height="30" as="geometry" />
        </mxCell>
        <mxCell id="REr1-U52xPMIMC_tFasp-189" value="Done" style="text;html=1;align=center;verticalAlign=middle;resizable=0;points=[];autosize=1;strokeColor=none;fillColor=none;" parent="WIyWlLk6GJQsqaUBKTNV-1" vertex="1">
          <mxGeometry x="335" y="4370" width="50" height="30" as="geometry" />
        </mxCell>
        <mxCell id="REr1-U52xPMIMC_tFasp-191" value="" style="edgeStyle=orthogonalEdgeStyle;rounded=0;orthogonalLoop=1;jettySize=auto;html=1;" parent="WIyWlLk6GJQsqaUBKTNV-1" source="REr1-U52xPMIMC_tFasp-175" target="REr1-U52xPMIMC_tFasp-190" edge="1">
          <mxGeometry relative="1" as="geometry">
            <mxPoint x="390" y="4330" as="sourcePoint" />
            <mxPoint x="390" y="4450" as="targetPoint" />
          </mxGeometry>
        </mxCell>
        <mxCell id="REr1-U52xPMIMC_tFasp-194" value="" style="edgeStyle=orthogonalEdgeStyle;rounded=0;orthogonalLoop=1;jettySize=auto;html=1;" parent="WIyWlLk6GJQsqaUBKTNV-1" source="REr1-U52xPMIMC_tFasp-190" target="REr1-U52xPMIMC_tFasp-193" edge="1">
          <mxGeometry relative="1" as="geometry" />
        </mxCell>
        <mxCell id="REr1-U52xPMIMC_tFasp-190" value="&lt;div style=&quot;color: rgb(171, 178, 191); background-color: rgb(40, 44, 52); font-size: 14px; line-height: 19px; white-space: pre;&quot;&gt;&lt;span style=&quot;color: rgb(198, 120, 221);&quot;&gt;for&lt;/span&gt; i &lt;span style=&quot;color: rgb(198, 120, 221);&quot;&gt;in&lt;/span&gt; &lt;span style=&quot;color: rgb(86, 182, 194);&quot;&gt;range&lt;/span&gt;(&lt;span style=&quot;color: rgb(209, 154, 102);&quot;&gt;1&lt;/span&gt;, &lt;span style=&quot;color: rgb(209, 154, 102);&quot;&gt;11&lt;/span&gt;)&lt;/div&gt;" style="shape=hexagon;perimeter=hexagonPerimeter2;whiteSpace=wrap;html=1;fixedSize=1;rounded=1;" parent="WIyWlLk6GJQsqaUBKTNV-1" vertex="1">
          <mxGeometry x="310" y="4450" width="160" height="80" as="geometry" />
        </mxCell>
        <mxCell id="REr1-U52xPMIMC_tFasp-196" value="" style="edgeStyle=orthogonalEdgeStyle;rounded=0;orthogonalLoop=1;jettySize=auto;html=1;" parent="WIyWlLk6GJQsqaUBKTNV-1" source="REr1-U52xPMIMC_tFasp-193" target="REr1-U52xPMIMC_tFasp-195" edge="1">
          <mxGeometry relative="1" as="geometry" />
        </mxCell>
        <mxCell id="REr1-U52xPMIMC_tFasp-193" value="&lt;div style=&quot;color: rgb(171, 178, 191); background-color: rgb(40, 44, 52); font-size: 14px; line-height: 19px; white-space: pre;&quot;&gt;&lt;span style=&quot;color: rgb(198, 120, 221);&quot;&gt;if&lt;/span&gt; the initial value of&lt;/div&gt;&lt;div style=&quot;color: rgb(171, 178, 191); background-color: rgb(40, 44, 52); font-size: 14px; line-height: 19px; white-space: pre;&quot;&gt; &lt;span style=&quot;color: light-dark(rgb(152, 195, 121), rgb(152, 195, 121)); background-color: light-dark(rgb(40, 44, 52), rgb(40, 44, 52));&quot;&gt;oSec(i)Field01 = &lt;/span&gt;[&lt;span style=&quot;color: rgb(152, 195, 121);&quot;&gt;&quot;oooo&quot;&lt;/span&gt;, &lt;span style=&quot;color: rgb(209, 154, 102);&quot;&gt;None&lt;/span&gt;]&lt;/div&gt;" style="rhombus;whiteSpace=wrap;html=1;rounded=1;" parent="WIyWlLk6GJQsqaUBKTNV-1" vertex="1">
          <mxGeometry x="545" y="4420" width="285" height="140" as="geometry" />
        </mxCell>
        <mxCell id="REr1-U52xPMIMC_tFasp-195" value="&lt;div style=&quot;color: rgb(171, 178, 191); background-color: rgb(40, 44, 52); font-size: 14px; line-height: 19px; white-space: pre;&quot;&gt;aSection01Show &lt;span style=&quot;color: #c678dd;&quot;&gt;=&lt;/span&gt; &lt;span style=&quot;color: #98c379;&quot;&gt;&quot;Hide&quot;&lt;/span&gt;&lt;/div&gt;" style="whiteSpace=wrap;html=1;rounded=1;" parent="WIyWlLk6GJQsqaUBKTNV-1" vertex="1">
          <mxGeometry x="587.5" y="4640" width="200" height="60" as="geometry" />
        </mxCell>
        <mxCell id="REr1-U52xPMIMC_tFasp-197" value="yes" style="text;html=1;align=center;verticalAlign=middle;resizable=0;points=[];autosize=1;strokeColor=none;fillColor=none;" parent="WIyWlLk6GJQsqaUBKTNV-1" vertex="1">
          <mxGeometry x="640" y="4580" width="40" height="30" as="geometry" />
        </mxCell>
        <mxCell id="REr1-U52xPMIMC_tFasp-198" style="edgeStyle=orthogonalEdgeStyle;rounded=0;orthogonalLoop=1;jettySize=auto;html=1;" parent="WIyWlLk6GJQsqaUBKTNV-1" source="REr1-U52xPMIMC_tFasp-195" target="REr1-U52xPMIMC_tFasp-190" edge="1">
          <mxGeometry relative="1" as="geometry">
            <mxPoint x="429" y="4550" as="targetPoint" />
            <Array as="points">
              <mxPoint x="430" y="4670" />
            </Array>
          </mxGeometry>
        </mxCell>
        <mxCell id="REr1-U52xPMIMC_tFasp-199" value="Next" style="text;html=1;align=center;verticalAlign=middle;resizable=0;points=[];autosize=1;strokeColor=none;fillColor=none;" parent="WIyWlLk6GJQsqaUBKTNV-1" vertex="1">
          <mxGeometry x="495" y="4640" width="50" height="30" as="geometry" />
        </mxCell>
        <mxCell id="REr1-U52xPMIMC_tFasp-201" value="Done" style="text;html=1;align=center;verticalAlign=middle;resizable=0;points=[];autosize=1;strokeColor=none;fillColor=none;" parent="WIyWlLk6GJQsqaUBKTNV-1" vertex="1">
          <mxGeometry x="340" y="4600" width="50" height="30" as="geometry" />
        </mxCell>
        <mxCell id="REr1-U52xPMIMC_tFasp-203" value="" style="edgeStyle=orthogonalEdgeStyle;rounded=0;orthogonalLoop=1;jettySize=auto;html=1;" parent="WIyWlLk6GJQsqaUBKTNV-1" source="REr1-U52xPMIMC_tFasp-190" target="REr1-U52xPMIMC_tFasp-202" edge="1">
          <mxGeometry relative="1" as="geometry">
            <mxPoint x="390" y="4730" as="targetPoint" />
            <mxPoint x="390" y="4530" as="sourcePoint" />
          </mxGeometry>
        </mxCell>
        <mxCell id="REr1-U52xPMIMC_tFasp-205" style="edgeStyle=orthogonalEdgeStyle;rounded=0;orthogonalLoop=1;jettySize=auto;html=1;" parent="WIyWlLk6GJQsqaUBKTNV-1" source="REr1-U52xPMIMC_tFasp-202" target="REr1-U52xPMIMC_tFasp-204" edge="1">
          <mxGeometry relative="1" as="geometry" />
        </mxCell>
        <mxCell id="REr1-U52xPMIMC_tFasp-202" value="&lt;div style=&quot;color: rgb(171, 178, 191); background-color: rgb(40, 44, 52); font-size: 14px; line-height: 19px; white-space: pre;&quot;&gt;&lt;span style=&quot;color: rgb(198, 120, 221);&quot;&gt;for&lt;/span&gt; i &lt;span style=&quot;color: rgb(198, 120, 221);&quot;&gt;in&lt;/span&gt; &lt;span style=&quot;color: rgb(86, 182, 194);&quot;&gt;range&lt;/span&gt;(&lt;span style=&quot;color: rgb(209, 154, 102);&quot;&gt;1&lt;/span&gt;, &lt;span style=&quot;color: rgb(209, 154, 102);&quot;&gt;11&lt;/span&gt;)&lt;/div&gt;" style="shape=hexagon;perimeter=hexagonPerimeter2;whiteSpace=wrap;html=1;fixedSize=1;rounded=1;" parent="WIyWlLk6GJQsqaUBKTNV-1" vertex="1">
          <mxGeometry x="310" y="4780" width="160" height="80" as="geometry" />
        </mxCell>
        <mxCell id="REr1-U52xPMIMC_tFasp-207" style="edgeStyle=orthogonalEdgeStyle;rounded=0;orthogonalLoop=1;jettySize=auto;html=1;" parent="WIyWlLk6GJQsqaUBKTNV-1" source="REr1-U52xPMIMC_tFasp-204" target="REr1-U52xPMIMC_tFasp-206" edge="1">
          <mxGeometry relative="1" as="geometry">
            <Array as="points">
              <mxPoint x="770" y="4880" />
              <mxPoint x="770" y="4880" />
            </Array>
          </mxGeometry>
        </mxCell>
        <mxCell id="REr1-U52xPMIMC_tFasp-204" value="&lt;div style=&quot;color: rgb(171, 178, 191); background-color: rgb(40, 44, 52); font-size: 14px; line-height: 19px; white-space: pre;&quot;&gt;&lt;span style=&quot;color: rgb(198, 120, 221);&quot;&gt;for&lt;/span&gt; j &lt;span style=&quot;color: rgb(198, 120, 221);&quot;&gt;in&lt;/span&gt; &lt;span style=&quot;color: rgb(86, 182, 194);&quot;&gt;range&lt;/span&gt;(&lt;span style=&quot;color: rgb(209, 154, 102);&quot;&gt;0&lt;/span&gt;, &lt;span style=&quot;color: rgb(209, 154, 102);&quot;&gt;10&lt;/span&gt;)&lt;/div&gt;" style="shape=hexagon;perimeter=hexagonPerimeter2;whiteSpace=wrap;html=1;fixedSize=1;rounded=1;" parent="WIyWlLk6GJQsqaUBKTNV-1" vertex="1">
          <mxGeometry x="640" y="4780" width="160" height="80" as="geometry" />
        </mxCell>
        <mxCell id="REr1-U52xPMIMC_tFasp-209" value="" style="edgeStyle=orthogonalEdgeStyle;rounded=0;orthogonalLoop=1;jettySize=auto;html=1;" parent="WIyWlLk6GJQsqaUBKTNV-1" source="REr1-U52xPMIMC_tFasp-206" target="REr1-U52xPMIMC_tFasp-208" edge="1">
          <mxGeometry relative="1" as="geometry">
            <Array as="points">
              <mxPoint x="770" y="5120" />
              <mxPoint x="770" y="5120" />
            </Array>
          </mxGeometry>
        </mxCell>
        <mxCell id="REr1-U52xPMIMC_tFasp-206" value="&lt;div style=&quot;color: rgb(171, 178, 191); background-color: rgb(40, 44, 52); font-size: 14px; line-height: 19px; white-space: pre;&quot;&gt;&lt;span style=&quot;color: rgb(198, 120, 221);&quot;&gt;if&lt;/span&gt; the initial value of&lt;/div&gt;&lt;div style=&quot;color: rgb(171, 178, 191); background-color: rgb(40, 44, 52); font-size: 14px; line-height: 19px; white-space: pre;&quot;&gt; &lt;span style=&quot;color: light-dark(rgb(152, 195, 121), rgb(152, 195, 121)); background-color: light-dark(rgb(40, 44, 52), rgb(40, 44, 52));&quot;&gt;oSec(i)Field(j) = &lt;/span&gt;[&lt;span style=&quot;color: rgb(152, 195, 121);&quot;&gt;&quot;oooo&quot;&lt;/span&gt;, &lt;span style=&quot;color: rgb(209, 154, 102);&quot;&gt;None&lt;/span&gt;]&lt;/div&gt;" style="rhombus;whiteSpace=wrap;html=1;rounded=1;" parent="WIyWlLk6GJQsqaUBKTNV-1" vertex="1">
          <mxGeometry x="627.5" y="4930" width="285" height="140" as="geometry" />
        </mxCell>
        <mxCell id="REr1-U52xPMIMC_tFasp-211" style="edgeStyle=orthogonalEdgeStyle;rounded=0;orthogonalLoop=1;jettySize=auto;html=1;entryX=1;entryY=0.5;entryDx=0;entryDy=0;" parent="WIyWlLk6GJQsqaUBKTNV-1" source="REr1-U52xPMIMC_tFasp-208" target="REr1-U52xPMIMC_tFasp-204" edge="1">
          <mxGeometry relative="1" as="geometry">
            <Array as="points">
              <mxPoint x="970" y="5190" />
              <mxPoint x="970" y="4820" />
            </Array>
          </mxGeometry>
        </mxCell>
        <mxCell id="REr1-U52xPMIMC_tFasp-208" value="&lt;div style=&quot;color: rgb(171, 178, 191); background-color: rgb(40, 44, 52); font-size: 14px; line-height: 19px; white-space: pre;&quot;&gt;&lt;div&gt;aSection(i)FieldShow[&lt;span style=&quot;color: rgb(152, 195, 121);&quot;&gt;&quot;aSection&lt;span style=&quot;color: rgb(171, 178, 191);&quot;&gt;(i)&lt;/span&gt;Field&lt;/span&gt;(j)&lt;span style=&quot;color: rgb(152, 195, 121);&quot;&gt;Show&quot;&lt;/span&gt;] &lt;span style=&quot;color: rgb(198, 120, 221);&quot;&gt;=&lt;/span&gt; &lt;span style=&quot;color: rgb(152, 195, 121);&quot;&gt;&quot;Hide&quot;&lt;/span&gt;&lt;/div&gt;&lt;div&gt;aSection(i)FieldShow[&lt;span style=&quot;color: rgb(152, 195, 121);&quot;&gt;&quot;aSection&lt;span style=&quot;color: rgb(171, 178, 191);&quot;&gt;(i)&lt;/span&gt;Field&lt;/span&gt;(j)&lt;span style=&quot;color: rgb(152, 195, 121);&quot;&gt;Show&quot;&lt;/span&gt;] &lt;span style=&quot;color: rgb(198, 120, 221);&quot;&gt;=&lt;/span&gt; &lt;span style=&quot;color: rgb(152, 195, 121);&quot;&gt;&quot;Hide&quot;&lt;/span&gt;&lt;/div&gt;&lt;/div&gt;" style="rounded=1;whiteSpace=wrap;html=1;" parent="WIyWlLk6GJQsqaUBKTNV-1" vertex="1">
          <mxGeometry x="600" y="5160" width="400" height="60" as="geometry" />
        </mxCell>
        <mxCell id="REr1-U52xPMIMC_tFasp-210" value="yes" style="text;html=1;align=center;verticalAlign=middle;resizable=0;points=[];autosize=1;strokeColor=none;fillColor=none;" parent="WIyWlLk6GJQsqaUBKTNV-1" vertex="1">
          <mxGeometry x="730" y="5088" width="40" height="30" as="geometry" />
        </mxCell>
        <mxCell id="REr1-U52xPMIMC_tFasp-212" value="Next" style="text;html=1;align=center;verticalAlign=middle;resizable=0;points=[];autosize=1;strokeColor=none;fillColor=none;" parent="WIyWlLk6GJQsqaUBKTNV-1" vertex="1">
          <mxGeometry x="887" y="4790" width="50" height="30" as="geometry" />
        </mxCell>
        <mxCell id="REr1-U52xPMIMC_tFasp-214" style="edgeStyle=orthogonalEdgeStyle;rounded=0;orthogonalLoop=1;jettySize=auto;html=1;entryX=0.756;entryY=1.038;entryDx=0;entryDy=0;entryPerimeter=0;" parent="WIyWlLk6GJQsqaUBKTNV-1" source="REr1-U52xPMIMC_tFasp-204" target="REr1-U52xPMIMC_tFasp-202" edge="1">
          <mxGeometry relative="1" as="geometry">
            <Array as="points">
              <mxPoint x="710" y="4900" />
              <mxPoint x="431" y="4900" />
            </Array>
          </mxGeometry>
        </mxCell>
        <mxCell id="REr1-U52xPMIMC_tFasp-215" value="Done" style="text;html=1;align=center;verticalAlign=middle;resizable=0;points=[];autosize=1;strokeColor=none;fillColor=none;" parent="WIyWlLk6GJQsqaUBKTNV-1" vertex="1">
          <mxGeometry x="470" y="4860" width="50" height="30" as="geometry" />
        </mxCell>
        <mxCell id="REr1-U52xPMIMC_tFasp-218" value="Done" style="text;html=1;align=center;verticalAlign=middle;resizable=0;points=[];autosize=1;strokeColor=none;fillColor=none;" parent="WIyWlLk6GJQsqaUBKTNV-1" vertex="1">
          <mxGeometry x="335" y="4880" width="50" height="30" as="geometry" />
        </mxCell>
        <mxCell id="REr1-U52xPMIMC_tFasp-220" value="" style="edgeStyle=orthogonalEdgeStyle;rounded=0;orthogonalLoop=1;jettySize=auto;html=1;" parent="WIyWlLk6GJQsqaUBKTNV-1" source="aLH3GyyW77beAzNb0F7m-0" target="REr1-U52xPMIMC_tFasp-219" edge="1">
          <mxGeometry relative="1" as="geometry">
            <mxPoint x="390" y="5280" as="targetPoint" />
            <mxPoint x="390" y="4860" as="sourcePoint" />
          </mxGeometry>
        </mxCell>
        <mxCell id="REr1-U52xPMIMC_tFasp-219" value="&lt;span style=&quot;color: rgb(97, 175, 239); font-size: 14px; white-space: pre; background-color: rgb(40, 44, 52);&quot;&gt;End&lt;/span&gt;" style="rounded=1;whiteSpace=wrap;html=1;" parent="WIyWlLk6GJQsqaUBKTNV-1" vertex="1">
          <mxGeometry x="330" y="5670" width="120" height="60" as="geometry" />
        </mxCell>
        <mxCell id="aLH3GyyW77beAzNb0F7m-1" value="" style="edgeStyle=orthogonalEdgeStyle;rounded=0;orthogonalLoop=1;jettySize=auto;html=1;" edge="1" parent="WIyWlLk6GJQsqaUBKTNV-1" source="REr1-U52xPMIMC_tFasp-202" target="aLH3GyyW77beAzNb0F7m-0">
          <mxGeometry relative="1" as="geometry">
            <mxPoint x="390" y="5920" as="targetPoint" />
            <mxPoint x="390" y="4860" as="sourcePoint" />
          </mxGeometry>
        </mxCell>
        <mxCell id="aLH3GyyW77beAzNb0F7m-0" value="&lt;div style=&quot;color: rgb(171, 178, 191); background-color: rgb(40, 44, 52); font-size: 14px; line-height: 19px; white-space: pre;&quot;&gt;&lt;div&gt;&lt;span style=&quot;color: #c678dd;&quot;&gt;return&lt;/span&gt; render(request, &lt;span style=&quot;color: #98c379;&quot;&gt;&quot;PageDataSheet.html&quot;&lt;/span&gt;, {&lt;/div&gt;&lt;div&gt;&amp;nbsp; &amp;nbsp; &amp;nbsp; &amp;nbsp; &lt;span style=&quot;color: #98c379;&quot;&gt;&quot;form&quot;&lt;/span&gt;: form,&lt;/div&gt;&lt;div&gt;&amp;nbsp; &amp;nbsp; &amp;nbsp; &amp;nbsp; &lt;span style=&quot;color: #98c379;&quot;&gt;&quot;machines&quot;&lt;/span&gt;: machines,&lt;/div&gt;&lt;div&gt;&amp;nbsp; &amp;nbsp; &amp;nbsp; &amp;nbsp; &lt;span style=&quot;color: #98c379;&quot;&gt;&quot;projects&quot;&lt;/span&gt;: projects, &amp;nbsp;&lt;/div&gt;&lt;div&gt;&amp;nbsp; &amp;nbsp; &amp;nbsp; &amp;nbsp; &lt;span style=&quot;color: #98c379;&quot;&gt;&quot;aMachineName&quot;&lt;/span&gt;: aMachineName, &amp;nbsp;&lt;/div&gt;&lt;div&gt;&amp;nbsp; &amp;nbsp; &amp;nbsp; &amp;nbsp; &lt;span style=&quot;color: #98c379;&quot;&gt;&quot;user_company&quot;&lt;/span&gt;: user_company,&lt;/div&gt;&lt;div&gt;&amp;nbsp; &amp;nbsp; &amp;nbsp; &amp;nbsp; &lt;span style=&quot;color: #98c379;&quot;&gt;&quot;sheet_key&quot;&lt;/span&gt;: sheet_key,&lt;/div&gt;&lt;div&gt;&amp;nbsp; &amp;nbsp; &amp;nbsp; &amp;nbsp; &lt;span style=&quot;color: #98c379;&quot;&gt;&quot;sheet_keys&quot;&lt;/span&gt;: sheet_keys,&lt;/div&gt;&lt;div&gt;&amp;nbsp; &amp;nbsp; &amp;nbsp; &amp;nbsp; &lt;span style=&quot;color: #98c379;&quot;&gt;&quot;machineShow&quot;&lt;/span&gt;: machineShow,&lt;/div&gt;&lt;div&gt;&amp;nbsp; &amp;nbsp; &amp;nbsp; &amp;nbsp; &lt;span style=&quot;color: #98c379;&quot;&gt;&quot;aSection01Show&quot;&lt;/span&gt;: aSection01Show,&lt;/div&gt;&lt;div&gt;&amp;nbsp; &amp;nbsp; &amp;nbsp; &amp;nbsp; &lt;span style=&quot;color: #98c379;&quot;&gt;&quot;aSection02Show&quot;&lt;/span&gt;: aSection02Show,&lt;/div&gt;&lt;div&gt;&amp;nbsp; &amp;nbsp; &amp;nbsp; &amp;nbsp; &lt;span style=&quot;color: #98c379;&quot;&gt;&quot;aSection03Show&quot;&lt;/span&gt;: aSection03Show,&lt;/div&gt;&lt;div&gt;&amp;nbsp; &amp;nbsp; &amp;nbsp; &amp;nbsp; &lt;span style=&quot;color: #98c379;&quot;&gt;&quot;aSection04Show&quot;&lt;/span&gt;: aSection04Show,&lt;/div&gt;&lt;div&gt;&amp;nbsp; &amp;nbsp; &amp;nbsp; &amp;nbsp; &lt;span style=&quot;color: #98c379;&quot;&gt;&quot;aSection05Show&quot;&lt;/span&gt;: aSection05Show,&lt;/div&gt;&lt;div&gt;&amp;nbsp; &amp;nbsp; &amp;nbsp; &amp;nbsp; &lt;span style=&quot;color: #98c379;&quot;&gt;&quot;aSection06Show&quot;&lt;/span&gt;: aSection06Show,&lt;/div&gt;&lt;div&gt;&amp;nbsp; &amp;nbsp; &amp;nbsp; &amp;nbsp; &lt;span style=&quot;color: #98c379;&quot;&gt;&quot;aSection07Show&quot;&lt;/span&gt;: aSection07Show,&lt;/div&gt;&lt;div&gt;&amp;nbsp; &amp;nbsp; &amp;nbsp; &amp;nbsp; &lt;span style=&quot;color: #98c379;&quot;&gt;&quot;aSection08Show&quot;&lt;/span&gt;: aSection08Show,&lt;/div&gt;&lt;div&gt;&amp;nbsp; &amp;nbsp; &amp;nbsp; &amp;nbsp; &lt;span style=&quot;color: #98c379;&quot;&gt;&quot;aSection09Show&quot;&lt;/span&gt;: aSection09Show,&lt;/div&gt;&lt;div&gt;&amp;nbsp; &amp;nbsp; &amp;nbsp; &amp;nbsp; &lt;span style=&quot;color: #98c379;&quot;&gt;&quot;aSection10Show&quot;&lt;/span&gt;: aSection10Show,&lt;/div&gt;&lt;div&gt;&amp;nbsp; &amp;nbsp; &amp;nbsp; &amp;nbsp; &lt;span style=&quot;color: #c678dd;&quot;&gt;**&lt;/span&gt;aSection01FieldShow,&lt;/div&gt;&lt;div&gt;&amp;nbsp; &amp;nbsp; &amp;nbsp; &amp;nbsp; &lt;span style=&quot;color: #c678dd;&quot;&gt;**&lt;/span&gt;aSection02FieldShow,&lt;/div&gt;&lt;div&gt;&amp;nbsp; &amp;nbsp; &amp;nbsp; &amp;nbsp; &lt;span style=&quot;color: #c678dd;&quot;&gt;**&lt;/span&gt;aSection03FieldShow,&lt;/div&gt;&lt;div&gt;&amp;nbsp; &amp;nbsp; &amp;nbsp; &amp;nbsp; &lt;span style=&quot;color: #c678dd;&quot;&gt;**&lt;/span&gt;aSection04FieldShow,&lt;/div&gt;&lt;div&gt;&amp;nbsp; &amp;nbsp; &amp;nbsp; &amp;nbsp; &lt;span style=&quot;color: #c678dd;&quot;&gt;**&lt;/span&gt;aSection05FieldShow,&lt;/div&gt;&lt;div&gt;&amp;nbsp; &amp;nbsp; &amp;nbsp; &amp;nbsp; &lt;span style=&quot;color: #c678dd;&quot;&gt;**&lt;/span&gt;aSection06FieldShow,&lt;/div&gt;&lt;div&gt;&amp;nbsp; &amp;nbsp; &amp;nbsp; &amp;nbsp; &lt;span style=&quot;color: #c678dd;&quot;&gt;**&lt;/span&gt;aSection07FieldShow,&lt;/div&gt;&lt;div&gt;&amp;nbsp; &amp;nbsp; &amp;nbsp; &amp;nbsp; &lt;span style=&quot;color: #c678dd;&quot;&gt;**&lt;/span&gt;aSection08FieldShow,&lt;/div&gt;&lt;div&gt;&amp;nbsp; &amp;nbsp; &amp;nbsp; &amp;nbsp; &lt;span style=&quot;color: #c678dd;&quot;&gt;**&lt;/span&gt;aSection09FieldShow,&lt;/div&gt;&lt;div&gt;&amp;nbsp; &amp;nbsp; &amp;nbsp; &amp;nbsp; &lt;span style=&quot;color: #c678dd;&quot;&gt;**&lt;/span&gt;aSection10FieldShow,&lt;/div&gt;&lt;div&gt;&amp;nbsp; &amp;nbsp; })&lt;/div&gt;&lt;/div&gt;" style="rounded=1;whiteSpace=wrap;html=1;" vertex="1" parent="WIyWlLk6GJQsqaUBKTNV-1">
          <mxGeometry x="225" y="4980" width="330" height="630" as="geometry" />
        </mxCell>
      </root>
    </mxGraphModel>
  </diagram>
</mxfile>
